<svg width="226" height="209" viewBox="0 0 226 209" fill="none" xmlns="http://www.w3.org/2000/svg">
<g filter="url(#filter0_d)">
<path fill-rule="evenodd" clip-rule="evenodd" d="M54.2144 138.897C65.447 149.643 98.8798 172.931 116.715 171.397C134.393 169.878 154.147 162.139 167.154 151.291C167.386 151.097 167.594 150.886 167.785 150.652L168 150.391C178.921 137.09 194.59 118.005 192.715 100.398C190.812 82.5201 176.715 54.8979 164.214 39.8987C151.712 24.8996 118.784 18.0604 100.714 17.3974C82.6449 16.7343 70.6187 23.2408 57.9999 35.0001C45.5465 46.6054 33.8417 71.4391 33.2333 89.1939C33.2172 89.6639 33.2759 90.1225 33.3987 90.5765C38.3914 109.032 45.5537 134.653 54.2144 138.897ZM58.2405 135.605C57.3428 135.332 56.5212 134.787 55.9063 133.974C45.707 120.489 40.2408 104.247 40.5292 88.0053C40.8453 70.2089 48.0468 53.7536 60.6656 41.9943C73.2844 30.235 90.3703 24.0571 108.44 24.7201C126.509 25.3831 144.202 32.8372 157.911 45.5626C171.619 58.2879 180.311 75.3264 182.215 93.2042C184.119 111.082 179.091 128.453 168.156 141.776C157.222 155.098 141.204 163.37 123.368 164.903C107.106 166.301 90.4486 162.001 76.2267 152.826C73.9298 151.345 73.4468 148.241 75.0364 146.018L85.4991 131.381C85.7536 131.495 86.0011 131.628 86.2394 131.778C93.9319 136.608 102.054 137.131 111.084 136.355C116.25 135.911 121.14 134.44 125.491 132.079C132.051 130.143 137.862 126.435 142.268 121.296C142.586 120.925 142.835 120.5 143.033 120.054C143.89 118.123 144.785 116.617 145.647 115.168C148.164 110.934 150.388 107.194 150.483 94.8102C150.487 94.2642 150.391 93.6946 150.219 93.1767C148.441 87.8441 148.126 85.9547 147.46 84.1985C146.52 81.7219 144.883 79.51 137.462 68.2796C137.227 67.9239 136.929 67.5757 136.61 67.2924C123.833 55.926 118.727 55.7511 109.704 55.4419C109.291 55.4278 108.87 55.4133 108.44 55.3976C102.651 55.1852 97.2034 57.1983 92.2904 60.1944C86.3747 61.6491 80.9605 64.5249 76.5409 68.6435C69.5891 75.1218 65.6217 84.1871 65.4476 93.9913C65.3026 102.157 67.7978 110.323 72.5055 117.334C74.0707 119.665 73.814 122.87 71.6404 124.648L58.2405 135.605ZM58.2405 135.605L54.2144 138.897L81.8579 131.065C83.0739 130.721 84.3564 130.867 85.4991 131.381L86.9121 129.404C88.5342 127.135 91.6883 126.66 94.1106 128.043C101.481 132.252 109.865 134.178 118.067 133.473C120.62 133.253 123.105 132.783 125.491 132.079C129.415 129.949 132.902 127.094 135.758 123.614C141.782 116.274 144.552 106.704 143.504 96.8554C142.455 87.0064 137.666 77.6197 130.114 70.6092C122.562 63.5987 112.815 59.4922 102.86 59.127C99.2341 58.9939 95.6799 59.3609 92.2904 60.1944C88.7547 62.3506 85.496 65.0159 82.5867 67.7271C75.6349 74.2054 73.8887 83.4001 73.7145 93.2042C73.5707 101.303 75.148 107.972 79.4764 114.448C81.0388 116.785 80.7897 119.988 78.6101 121.764L62.7435 134.691C61.4314 135.76 59.7311 136.058 58.2405 135.605ZM131.298 55.8052C131.563 55.5292 131.996 55.5027 132.292 55.7442L132.384 55.8188V55.8188C132.129 56.3471 132.379 56.9809 132.927 57.1916L135.133 58.0403C135.181 58.0896 135.235 58.1392 135.296 58.1891V58.1891C135.629 58.4603 135.662 58.9596 135.364 59.2696V59.2696C135.099 59.5455 134.667 59.572 134.37 59.3305L131.364 56.8843C131.031 56.6131 131.001 56.1151 131.298 55.8052V55.8052ZM135.805 56.3644C135.831 56.4317 135.865 56.4932 135.905 56.5489C136.05 56.7468 136.293 56.9115 136.635 57.0432V57.0432C137.036 57.1976 137.221 57.6624 137.034 58.0495V58.0495C136.867 58.3936 136.465 58.5528 136.108 58.4155L135.133 58.0403C134.99 57.892 134.91 57.7462 134.892 57.6029C134.892 57.4106 135.002 57.2002 135.222 56.9718L135.805 56.3644ZM135.987 53.3335L135.743 55.7392C135.717 55.9848 135.738 56.1932 135.805 56.3644V56.3644C137.817 54.2691 141.328 56.0368 140.842 58.9012L140.101 63.278C140.035 63.6676 140.184 64.0626 140.49 64.3121V64.3121C140.933 64.6725 141.578 64.633 141.974 64.2211L150.344 55.5061L150.55 55.7354C150.822 56.0391 151.284 56.0796 151.605 55.828V55.828C151.854 55.6328 152.076 55.5437 152.27 55.5607C152.475 55.5902 152.689 55.7289 152.912 55.977V55.977C153.86 57.034 153.717 58.6731 152.598 59.5487L144.961 65.5287C144.712 65.7239 144.483 65.8182 144.276 65.8114C144.082 65.7944 143.863 65.6494 143.618 65.3766L143.593 65.349C143.334 65.0609 142.897 65.0224 142.592 65.2612V65.2612C142.256 65.5237 142.213 66.0151 142.498 66.332L145.086 69.2158C145.345 69.5039 145.783 69.5423 146.087 69.3036L146.136 69.2654C146.445 69.0236 146.485 68.5708 146.223 68.2789V68.2789C145.978 68.006 145.863 67.7789 145.879 67.5975C145.908 67.4058 146.048 67.2123 146.297 67.0171L153.954 61.0217C155.106 60.1196 156.76 60.2647 157.738 61.3537V61.3537C157.972 61.6142 158.081 61.8351 158.065 62.0166C158.049 62.198 157.916 62.3863 157.667 62.5815V62.5815C157.358 62.8234 157.318 63.2761 157.58 63.568L157.666 63.6638C157.947 63.9764 158.422 64.0181 158.752 63.7591L159.285 63.3422C159.978 62.7993 160.067 61.7831 159.479 61.1278L153.576 54.551V54.551C153.684 54.4381 153.673 54.2566 153.552 54.1577L150.153 51.3915C149.856 51.1499 149.424 51.1764 149.159 51.4524V51.4524C148.861 51.7623 148.893 52.2616 149.227 52.5329V52.5329C149.485 52.7433 149.62 52.9387 149.631 53.119C149.642 53.2994 149.532 53.5097 149.301 53.7501V53.7501C147.109 56.0323 143.286 54.1048 143.818 50.9855L144.312 48.0846C144.446 47.2992 144.147 46.5025 143.529 45.9996L142.475 45.142C142.178 44.9005 141.746 44.927 141.481 45.2029V45.2029C141.183 45.5128 141.215 46.0122 141.549 46.2834V46.2834C141.794 46.4833 141.922 46.6734 141.934 46.8538C141.945 47.0341 141.835 47.2445 141.604 47.4849L135.987 53.3335ZM133.855 55.5534L133.875 55.3589C134.073 53.5037 132.999 51.7472 131.258 51.0773V51.0773C129.734 50.491 128.008 50.86 126.857 52.018L126.653 52.2231L126.245 52.1182C125.906 52.0311 125.642 51.9031 125.453 51.7344C125.311 51.5916 125.208 51.4078 125.146 51.1829L134.818 41.4932C135.189 41.1221 135.743 41.0042 136.233 41.1925V41.1925C136.791 41.4071 137.136 41.9685 137.076 42.5633L135.987 53.3335L133.855 55.5534ZM133.552 55.857C133.597 55.8177 133.643 55.7737 133.69 55.7251L133.855 55.5534L133.841 55.6801C133.826 55.8199 133.683 55.9075 133.552 55.857V55.857ZM133.552 55.857L132.911 55.6105C132.708 55.5324 132.479 55.6229 132.384 55.8188V55.8188L132.388 55.8218C132.633 56.0217 132.854 56.1157 133.05 56.1037C133.206 56.0941 133.373 56.0119 133.552 55.857ZM121.912 52.5236L122.019 52.3012C122.222 51.8814 122.713 51.6872 123.149 51.8547V51.8547C123.475 51.9803 123.769 52.0221 124.029 51.9798C124.289 51.9376 124.546 51.7874 124.8 51.5292L125.146 51.1829C125.128 51.117 125.113 51.0476 125.101 50.9746L124.836 49.5193C124.519 47.776 126.157 46.2879 127.66 45.3493V45.3493C128.65 44.7455 129.347 43.8348 129.753 42.6173C130.212 41.2417 130.132 40.0624 129.513 39.0794C128.916 38.0847 127.842 37.3882 126.292 36.9898L119.305 35.1938C118.931 35.0976 118.546 35.3072 118.424 35.6737L118.404 35.7346C118.28 36.1064 118.497 36.5053 118.877 36.6029V36.6029C119.232 36.6942 119.45 36.8276 119.532 37.0031C119.619 37.1627 119.613 37.3928 119.512 37.6932L115.9 48.5321C115.866 48.6343 115.827 48.7255 115.784 48.8056L116.161 45.3347C116.334 43.7419 115.142 42.3271 113.543 42.2273L111.579 42.1048C111.179 42.0798 110.831 42.3736 110.788 42.7717V42.7717C110.741 43.1964 111.059 43.5737 111.486 43.6003L112.524 43.6651C113.517 43.727 114.256 44.6048 114.149 45.5931L114.004 46.9273C113.878 48.0862 113.096 49.1084 111.935 49.2123C111.403 49.2599 110.837 49.2649 110.237 49.2275C108.391 49.1123 107.009 48.4172 106.093 47.1422C105.176 45.8673 104.834 44.1611 105.066 42.0236C105.305 39.8199 105.982 38.1356 107.097 36.9708C108.23 35.7903 109.711 35.2572 111.541 35.3714C112.601 35.4375 113.473 35.6243 114.156 35.9315C114.464 36.07 114.619 36.4034 114.583 36.7389V36.7389C114.528 37.2389 114.903 37.683 115.405 37.7144L115.527 37.722C116.06 37.7552 116.525 37.3636 116.582 36.8328L116.635 36.3443C116.69 35.8443 116.499 35.3382 116.071 35.0731C114.971 34.3909 113.515 33.9932 111.703 33.8802C109.158 33.7214 107.16 34.3807 105.71 35.8583C104.277 37.337 103.422 39.3521 103.145 41.9038C102.968 43.5275 103.103 44.9872 103.548 46.2828C104.01 47.5795 104.785 48.6203 105.872 49.4055C106.978 50.1751 108.362 50.6118 110.025 50.7156C111.14 50.7851 112.151 50.7314 113.057 50.5545C113.27 50.5139 113.481 50.4657 113.689 50.4099L118.044 51.5294C118.418 51.6256 118.805 51.4097 118.927 51.0432V51.0432C119.06 50.6457 118.83 50.2122 118.424 50.1079V50.1079C118.085 50.0207 117.872 49.8973 117.785 49.7376C117.714 49.5821 117.729 49.3541 117.829 49.0537L118.646 46.6042C118.978 45.606 120.026 45.0351 121.045 45.2971V45.2971C121.802 45.4916 122.377 46.1085 122.518 46.8773L123.19 50.5549C123.26 50.9361 122.911 51.2612 122.535 51.1647V51.1647C122.265 51.0953 121.988 51.2466 121.9 51.5111L121.695 52.1252C121.638 52.2958 121.738 52.4789 121.912 52.5236V52.5236ZM126.693 53.2183V53.2183C126.971 53.3251 127.098 53.6461 126.968 53.9138L126.861 54.1357C126.694 54.4798 126.292 54.6389 125.935 54.5017L122.113 53.031C121.91 52.9531 121.817 52.7189 121.912 52.5236V52.5236L126.027 53.5813C126.31 53.6541 126.601 53.4956 126.693 53.2183V53.2183ZM126.693 53.2183L126.884 52.6466C126.944 52.4653 126.838 52.2707 126.653 52.2231V52.2231L126.511 52.3661C126.246 52.6326 126.342 53.0834 126.693 53.2183V53.2183ZM113.689 50.4099C114.133 50.2907 114.567 50.1365 114.99 49.9475C115.444 49.745 115.731 49.2996 115.784 48.8056V48.8056C115.701 48.9608 115.601 49.0744 115.485 49.1464C115.314 49.2397 115.05 49.2407 114.695 49.1494L114.657 49.1396C114.283 49.0435 113.898 49.2531 113.776 49.6195L113.58 50.2095C113.551 50.2953 113.601 50.3874 113.689 50.4099V50.4099ZM153.576 54.551L153.334 54.2813C152.799 53.6854 151.894 53.606 151.263 54.0996L150.409 54.7688C150.178 54.9496 150.148 55.2879 150.344 55.5061V55.5061L150.833 54.9969C151.064 54.7565 151.277 54.6303 151.473 54.6183C151.669 54.6063 151.89 54.7002 152.135 54.9001V54.9001C152.486 55.1855 152.997 55.1542 153.31 54.8281L153.576 54.551ZM131.634 47.1599C132.793 45.9858 134.784 46.9261 134.614 48.5673V48.5673C134.495 49.7111 133.323 50.4301 132.249 50.0172V50.0172C131.074 49.5651 130.749 48.0558 131.634 47.1599V47.1599ZM123.504 44.4098C124.602 44.692 125.523 44.6369 126.267 44.2445C127.016 43.8363 127.557 43.1342 127.889 42.1381C128.237 41.0945 128.221 40.275 127.841 39.6795C127.466 39.0682 126.698 38.6132 125.535 38.3145L124.627 38.0811C122.998 37.6621 121.322 38.5751 120.789 40.1715V40.1715C120.202 41.9344 121.232 43.8259 123.032 44.2885L123.504 44.4098ZM99.4307 49.5145C99.4277 49.4844 99.4495 49.4575 99.4796 49.454V49.454C99.5733 49.4578 99.6784 49.4458 99.7949 49.4181L100.22 49.3696C100.435 49.3451 100.605 49.2945 100.728 49.2178L100.823 49.4941C101.017 50.0632 100.706 50.6806 100.133 50.8639V50.8639V50.8639C99.823 50.8993 99.544 50.6736 99.5136 50.3629L99.4307 49.5145ZM100.133 50.8639L104.163 50.4046C104.563 50.359 104.853 50.0009 104.814 49.6002V49.6002C104.774 49.1903 104.406 48.8926 103.996 48.9393L103.946 48.945C103.631 48.9808 103.401 48.94 103.256 48.8224C103.111 48.7048 103.022 48.4801 102.989 48.1483L101.878 36.7775C101.846 36.4457 101.889 36.206 102.009 36.0582C102.128 35.9104 102.345 35.8185 102.66 35.7827L102.734 35.7743C103.134 35.7287 103.423 35.3706 103.384 34.9699V34.9699C103.344 34.5599 102.976 34.2623 102.567 34.3089L98.7167 34.7477C98.3166 34.7933 98.0271 35.1514 98.0663 35.5521V35.5521C98.1063 35.9621 98.4744 36.2597 98.8837 36.2131L98.934 36.2073C99.2486 36.1715 99.4787 36.2123 99.6241 36.3299C99.7696 36.4475 99.8585 36.6722 99.8909 37.004L101 48.3499C101.032 48.6817 100.989 48.9298 100.871 49.0941C100.834 49.141 100.786 49.1822 100.728 49.2178V49.2178C100.713 49.1713 100.662 49.1461 100.616 49.161L99.938 49.378C99.8885 49.3938 99.8408 49.4072 99.7949 49.4181L99.4796 49.454C99.385 49.4502 99.302 49.4304 99.2306 49.3944C99.0552 49.2931 98.9137 49.0847 98.8062 48.7692L95.1363 38.0024C95.0288 37.6869 95.017 37.4457 95.101 37.2789C95.1796 37.0962 95.3697 36.9567 95.6713 36.8601L95.7176 36.8453C96.1106 36.7195 96.3239 36.2957 96.1908 35.9051V35.9051C96.0612 35.5247 95.6508 35.3182 95.2681 35.4407L93.7257 35.9344C92.8005 36.2306 92.1469 37.0578 92.0729 38.0264L91.9906 39.1043C91.7226 42.6133 87.376 44.0855 85.0308 41.4616L84.1478 40.4737C83.5249 39.7767 82.5503 39.5114 81.66 39.7964L80.0773 40.303C79.6843 40.4287 79.471 40.8525 79.6041 41.2431V41.2431C79.7337 41.6235 80.1441 41.83 80.5268 41.7075L80.5995 41.6842C80.9011 41.5877 81.1396 41.5901 81.315 41.6914C81.485 41.777 81.6237 41.9775 81.7313 42.293L85.1898 52.4399L79.1372 43.9144C78.9442 43.6426 78.8657 43.4171 78.9016 43.2377C78.9279 43.0448 79.0753 42.8645 79.3439 42.6967L79.3599 42.6867C79.7193 42.4623 79.8155 41.9816 79.5703 41.6361V41.6361C79.3447 41.3183 78.9105 41.2314 78.58 41.4378L77.2443 42.2719C76.3877 42.8068 75.9561 43.8196 76.1635 44.8079L76.3774 45.8272C77.0831 49.1903 73.4077 51.755 70.4946 49.932L68.9804 48.9844C68.2209 48.5091 67.2568 48.5087 66.4969 48.9833L65.0512 49.886C64.6918 50.1105 64.5955 50.5912 64.8408 50.9367V50.9367C65.0664 51.2544 65.5005 51.3414 65.8311 51.135L65.921 51.0788C66.1896 50.911 66.4239 50.853 66.6238 50.9047C66.8141 50.9428 67.0057 51.0977 67.1987 51.3695L73.7836 60.6448C73.9766 60.9166 74.0599 61.1489 74.0337 61.3418C73.9978 61.5212 73.8455 61.6947 73.5769 61.8625V61.8625C73.2088 62.0923 73.1102 62.5847 73.3615 62.9385L73.5351 63.1831C73.3444 63.1783 73.1292 63.0685 72.8898 62.8536L64.3858 55.2239C64.1377 55.0013 64.0123 54.7995 64.0096 54.6186C64.007 54.4376 64.1204 54.238 64.3497 54.0197V54.0197C64.6604 53.724 64.6563 53.2232 64.3371 52.9368V52.9368C64.0515 52.6807 63.6171 52.6871 63.3392 52.9515L60.5322 55.6229C60.2215 55.9185 60.2288 56.4163 60.5481 56.7027V56.7027C60.8336 56.9588 61.268 56.9524 61.5459 56.688L61.6333 56.6049C61.8627 56.3866 62.0753 56.276 62.2711 56.2731C62.4669 56.2702 62.6889 56.3801 62.937 56.6027L71.4224 64.2157C71.6705 64.4383 71.8021 64.6457 71.8172 64.8377C71.8198 65.0187 71.7065 65.2183 71.4771 65.4366V65.4366C71.1664 65.7323 71.1705 66.2331 71.4898 66.5195V66.5195C71.7753 66.7756 72.2097 66.7692 72.4876 66.5048L75.1552 63.9661C75.541 63.5989 75.5319 62.9808 75.1355 62.6251V62.6251L77.6276 61.0689C77.987 60.8445 78.0832 60.3638 77.8379 60.0183V60.0183C77.6123 59.7005 77.1782 59.6136 76.8477 59.82L76.7365 59.8894C76.4679 60.0572 76.2384 60.122 76.0482 60.0839C75.8482 60.0322 75.6566 59.8772 75.4733 59.619L75.0502 59.0231C73.8084 57.2739 75.8738 55.0868 77.6912 56.2266L78.0799 56.4705C78.4781 56.7202 78.9839 56.7207 79.3825 56.4718V56.4718C79.819 56.1991 80.0392 55.6832 79.934 55.1794L79.8334 54.6981C79.4051 52.648 82.0881 51.4766 83.3004 53.1843L84.0614 54.2561C84.1025 54.3141 84.1384 54.3705 84.169 54.4252V54.4252C84.1335 54.4366 84.1141 54.475 84.1262 54.5103L84.2855 54.9777C84.2348 55.1412 84.0863 55.2997 83.8402 55.4535L83.8029 55.4767C83.4436 55.7011 83.3473 56.1818 83.5926 56.5273V56.5273C83.8182 56.8451 84.2523 56.932 84.5828 56.7256L87.4884 54.9112L88.9599 54.4402C89.3529 54.3144 89.5662 53.8906 89.4331 53.5V53.5C89.3034 53.1197 88.8931 52.9131 88.5104 53.0357L88.4139 53.0665C88.1123 53.1631 87.8765 53.1686 87.7065 53.083C87.7009 53.0798 87.6954 53.0765 87.6899 53.0731L87.6831 53.0634C87.6804 53.0596 87.6753 53.0586 87.6713 53.061V53.061C87.5125 52.954 87.3854 52.7608 87.2902 52.4814L86.9904 51.602C86.3029 49.5849 88.8806 48.08 90.2991 49.6703L90.6128 50.022C90.936 50.3844 91.4423 50.5225 91.9048 50.3745V50.3745C92.3808 50.2221 92.7171 49.7968 92.7556 49.2985L92.7927 48.8183C92.9556 46.7097 95.8916 46.3387 96.5739 48.3405L96.9332 49.3949C97.0354 49.6946 97.0472 49.9358 96.9686 50.1184C96.8846 50.2853 96.6918 50.417 96.3903 50.5135L96.3201 50.536C95.9271 50.6617 95.7138 51.0855 95.8469 51.4761V51.4761C95.9766 51.8565 96.3869 52.063 96.7696 51.9405L100.133 50.8639ZM87.6713 53.061C87.6775 53.0652 87.6837 53.0692 87.6899 53.0731L87.8198 53.256C88.2062 53.8003 88.0546 54.5576 87.4884 54.9112V54.9112L85.4499 55.5637C84.9669 55.7183 84.4491 55.4577 84.2855 54.9777V54.9777C84.2901 54.9628 84.2939 54.9478 84.2969 54.9328C84.3173 54.7833 84.2747 54.614 84.169 54.4252L84.8662 54.2021C85.1678 54.1055 85.3605 53.9738 85.4445 53.807C85.5231 53.6244 85.5086 53.3753 85.4011 53.0598L85.1898 52.4399L85.7221 53.1896C85.915 53.4614 86.1115 53.6232 86.3114 53.6749C86.5017 53.713 86.7311 53.6482 86.9997 53.4804L87.6713 53.061ZM75.1355 62.6251V62.6251C74.9309 62.4415 74.6195 62.4461 74.4203 62.6356L74.1935 62.8514C73.9641 63.0697 73.7515 63.1803 73.5557 63.1832C73.5489 63.1833 73.542 63.1833 73.5351 63.1831V63.1831C73.657 63.3548 73.8917 63.4018 74.0703 63.2903L75.1355 62.6251ZM60.9082 91.1113C60.5085 91.0191 60.2608 90.6184 60.3571 90.2196L60.37 90.1662C60.4443 89.8584 60.4322 89.6247 60.3336 89.4651C60.2187 89.3018 59.9989 89.1826 59.6741 89.1077L59.3805 89.04L59.4398 89.0402C59.7731 89.0417 60.0156 88.9762 60.1671 88.8435C60.302 88.7108 60.3714 88.4778 60.3752 88.1445L60.3757 88.1017C60.3804 87.6965 60.7112 87.371 61.1165 87.3728V87.3728C61.5258 87.3747 61.8554 87.7095 61.8506 88.1189L61.8238 90.4294L61.7908 90.5658C61.6959 90.9589 61.3022 91.2022 60.9082 91.1113V91.1113ZM61.693 101.701L61.7377 97.8432C61.7425 97.4339 61.413 97.099 61.0036 97.0972V97.0972C60.5984 97.0953 60.2676 97.4209 60.2629 97.8261L60.2627 97.8438C60.259 98.1605 60.1897 98.3852 60.0548 98.5179C59.9033 98.6505 59.6608 98.7161 59.3275 98.7146L58.2173 98.7096C56.0873 98.7 54.3727 96.9575 54.3974 94.8277V94.8277C54.4219 92.7191 56.1432 91.0254 58.2518 91.0349L59.4166 91.0401C59.7499 91.0416 59.9908 91.1094 60.1393 91.2434C60.271 91.3773 60.3351 91.6026 60.3314 91.9192L60.3311 91.9515C60.3263 92.3608 60.6558 92.6957 61.0652 92.6975V92.6975C61.4704 92.6993 61.8012 92.3738 61.8059 91.9686L61.8238 90.4294L64.0071 81.387C64.1981 80.5962 63.707 79.8016 62.9143 79.6187L62.3718 79.4936C61.891 79.3827 61.4105 79.6796 61.2947 80.1593L61.2162 80.4841C61.1419 80.7919 61.3331 81.1011 61.6416 81.1723V81.1723C61.9501 81.2435 62.1518 81.367 62.2465 81.5428C62.3451 81.7023 62.3553 81.9441 62.2771 82.2682L61.7302 84.5332C61.3505 86.1054 59.7756 87.0787 58.1996 86.7151L57.6344 86.5847C56.3467 86.2877 55.5489 84.9969 55.8591 83.7123L56.2476 82.1035C56.3439 81.7048 56.0962 81.3041 55.6965 81.2119V81.2119C55.3025 81.121 54.9088 81.3643 54.8138 81.7574L54.4219 83.3807C54.1098 84.673 52.8154 85.473 51.52 85.1742L51.0375 85.0629C49.4521 84.6971 48.4699 83.1079 48.8518 81.5264L49.3905 79.2953C49.4688 78.9713 49.5885 78.7595 49.7497 78.6598C49.9148 78.544 50.1517 78.5217 50.4602 78.5928V78.5928C50.7571 78.6613 51.0538 78.478 51.1253 78.1818L51.2053 77.8505C51.3228 77.3639 51.0205 76.8749 50.5327 76.7624L49.9914 76.6375C49.2167 76.4588 48.4426 76.9372 48.256 77.71L45.9393 87.3045V87.3045C45.7982 87.3038 45.6831 87.4172 45.6814 87.5583L45.6312 91.8853C45.6264 92.2946 45.956 92.6295 46.3653 92.6313V92.6313C46.7706 92.6331 47.1014 92.3076 47.1061 91.9024L47.1066 91.8597C47.1102 91.543 47.1795 91.3183 47.3144 91.1856C47.4493 91.0529 47.6834 90.9873 48.0167 90.9888L49.1019 90.9937C51.2319 91.0033 52.9465 92.7457 52.9218 94.8756V94.8756C52.8973 96.9841 51.1761 98.6779 49.0674 98.6684L47.9276 98.6633C47.5943 98.6618 47.3617 98.594 47.23 98.4601C47.0982 98.3262 47.0341 98.1009 47.0378 97.7843V97.7843C47.0425 97.3749 46.7131 97.0328 46.3038 97.031V97.031C45.8985 97.0291 45.5677 97.3547 45.563 97.7599L45.5127 102.095C45.5112 102.223 45.6141 102.328 45.742 102.328V102.328L47.8964 112.177C48.0765 113 48.8901 113.521 49.7132 113.34L50.433 113.182C50.8576 113.089 51.1263 112.669 51.0334 112.245L51.0199 112.183C50.9344 111.792 50.5479 111.544 50.1569 111.63V111.63C49.8476 111.698 49.6136 111.681 49.4548 111.58C49.2925 111.462 49.1758 111.24 49.1045 110.914V110.914C48.7947 109.498 49.6912 108.098 51.1075 107.787L60.5819 105.707C60.8912 105.639 61.1334 105.654 61.3084 105.752C61.4671 105.854 61.5856 106.084 61.664 106.442V106.442C61.7495 106.833 62.1424 107.079 62.5334 106.994V106.994C62.931 106.906 63.1891 106.512 63.1021 106.114L62.2089 102.031C62.1578 101.797 61.9267 101.649 61.693 101.701V101.701ZM60.7788 102.396V102.396C60.7218 102.135 60.8868 101.878 61.1475 101.821L61.693 101.701V101.701C61.6885 102.088 61.3725 102.399 60.9854 102.397L60.7788 102.396ZM47.0007 101.394C47.0209 101.15 47.088 100.972 47.2021 100.86C47.337 100.727 47.5711 100.662 47.9044 100.663L59.3043 100.714C59.6376 100.716 59.8785 100.784 60.027 100.918C60.1588 101.052 60.2228 101.277 60.2191 101.594L60.2165 101.825C60.2128 102.138 60.4652 102.395 60.7788 102.396V102.396L60.8305 102.632C60.9089 102.991 60.8972 103.249 60.7955 103.408C60.6774 103.57 60.4638 103.685 60.1545 103.753L50.6557 105.839C49.2534 106.146 47.8673 105.259 47.5605 103.856V103.856C47.4857 103.514 47.4992 103.264 47.6009 103.105C47.7026 102.946 47.9082 102.833 48.2175 102.765V102.765C48.6086 102.679 48.8563 102.292 48.7707 101.901L48.7548 101.828C48.6603 101.397 48.2335 101.123 47.8017 101.218L47.0007 101.394ZM47.0007 101.394L46.2325 101.563C45.8856 101.639 45.6661 101.981 45.742 102.328V102.328L46.185 102.33C46.6277 102.332 46.9891 101.977 46.9943 101.534V101.534C46.9948 101.485 46.997 101.438 47.0007 101.394ZM47.1521 87.9379V87.9379C47.2316 87.9562 47.3111 87.9071 47.3303 87.8277L47.4835 87.1933C47.5578 86.8855 47.6756 86.6818 47.8368 86.5822C47.998 86.4825 48.241 86.4702 48.5658 86.5451L59.3805 89.04L48.0399 88.9889C47.7066 88.9874 47.474 88.9197 47.3422 88.7858C47.2107 88.6352 47.1467 88.4016 47.1504 88.0849L47.1521 87.9379ZM47.1521 87.9379V87.9379C47.1561 87.5918 46.8775 87.3087 46.5314 87.3071L45.9393 87.3045V87.3045C45.8948 87.4889 46.0093 87.6742 46.1942 87.7169L47.1521 87.9379ZM155.919 78.2145C156.333 78.1845 156.69 78.5021 156.709 78.9168L156.711 78.9589C156.725 79.2752 156.801 79.4952 156.94 79.6187C157.096 79.7411 157.34 79.7902 157.672 79.7661L169.043 78.9416C169.375 78.9175 169.605 78.834 169.732 78.6911C169.859 78.5483 169.915 78.3187 169.901 78.0023L169.897 77.9196C169.879 77.5207 170.182 77.1802 170.58 77.1513V77.1513C170.994 77.1213 171.352 77.4388 171.37 77.8536L171.542 81.6747C171.559 82.0735 171.253 82.4144 170.855 82.4433V82.4433C170.445 82.473 170.087 82.159 170.069 81.7486V81.7486C170.055 81.4322 169.978 81.2123 169.839 81.0887C169.7 80.9652 169.465 80.9154 169.132 80.9396L167.917 81.0277C165.845 81.1779 164.269 82.9502 164.362 85.0255V85.0255C164.459 87.1833 166.317 88.8359 168.472 88.6797L169.476 88.6069C169.808 88.5827 170.038 88.4993 170.165 88.3564C170.292 88.2136 170.348 87.984 170.334 87.6676L170.332 87.6099C170.314 87.211 170.617 86.8704 171.015 86.8415V86.8415C171.429 86.8115 171.786 87.1291 171.805 87.5438L171.977 91.39C171.995 91.7888 171.692 92.1294 171.294 92.1583V92.1583C170.88 92.1883 170.523 91.8707 170.504 91.456L170.503 91.4388C170.489 91.1225 170.412 90.8942 170.273 90.754C170.134 90.6305 169.898 90.5807 169.565 90.6048L158.195 91.4294C157.863 91.4535 157.625 91.5376 157.481 91.6816C157.354 91.8245 157.298 92.0624 157.313 92.3954L157.321 92.5752C157.188 92.3637 157.12 92.0842 157.117 91.7367V91.7367C157.114 91.2846 156.738 90.9245 156.286 90.94L155.773 90.9575L155.67 88.6731C155.652 88.2742 155.955 87.9337 156.353 87.9048V87.9048C156.767 87.8748 157.125 88.1923 157.143 88.6071L157.144 88.6242C157.158 88.9405 157.235 89.1605 157.374 89.284C157.529 89.4064 157.773 89.4555 158.106 89.4314L159.346 89.3415C161.418 89.1912 162.994 87.419 162.901 85.3437V85.3437C162.804 83.1858 160.945 81.5333 158.791 81.6895L157.762 81.7641C157.43 81.7882 157.191 81.8723 157.048 82.0163C156.921 82.1592 156.864 82.3888 156.879 82.7051L156.88 82.7379C156.898 83.1368 156.595 83.4774 156.197 83.5062V83.5062C155.783 83.5363 155.426 83.2187 155.407 82.804L155.236 78.9828C155.218 78.584 155.521 78.2434 155.919 78.2145V78.2145ZM155.757 105.797L155.731 102.58C155.727 102.18 156.043 101.851 156.443 101.837L156.638 101.831C156.946 101.82 157.201 102.065 157.203 102.372V102.372C157.207 102.754 157.59 103.015 157.946 102.878L159.668 102.215C160.378 101.942 160.843 101.258 160.837 100.498L160.811 97.2305C160.804 96.4433 160.294 95.749 159.544 95.5083L157.896 94.9788C157.524 94.8595 157.145 95.1385 157.148 95.5287V95.5287C157.15 95.8391 156.905 96.095 156.595 96.1056L156.435 96.1111C156.02 96.1253 155.676 95.795 155.672 95.3803L155.637 91.0985C155.637 91.0227 155.697 90.9601 155.773 90.9575V90.9575L155.843 92.5192C155.861 92.9339 156.218 93.2515 156.632 93.2215L156.754 93.2127C157.085 93.1887 157.336 92.9061 157.321 92.5752V92.5752L157.324 92.5798C157.459 92.7919 157.694 92.9506 158.028 93.0558L170.947 97.2381C171.492 97.4145 171.863 97.9198 171.867 98.4924V98.4924C171.872 99.0439 171.535 99.541 171.022 99.7417L158.123 104.78C157.911 104.862 157.741 104.962 157.611 105.081C157.535 104.926 157.53 104.708 157.596 104.429L157.607 104.382C157.703 103.98 157.449 103.578 157.046 103.491V103.491C156.653 103.406 156.265 103.651 156.172 104.042L155.757 105.797ZM153.369 116.582V116.582C153.282 116.563 153.227 116.477 153.248 116.39L153.46 115.495C153.542 115.15 153.791 114.868 154.123 114.745L158.234 113.221C161.087 112.163 160.793 108.036 157.819 107.392V107.392C157.51 107.325 157.266 107.341 157.089 107.439C156.924 107.557 156.805 107.77 156.732 108.078L156.714 108.152C156.622 108.543 156.233 108.788 155.841 108.703V108.703C155.437 108.616 155.184 108.214 155.279 107.813L155.757 105.797L155.761 106.28C155.764 106.695 156.109 107.025 156.523 107.011V107.011C156.923 106.997 157.238 106.668 157.235 106.268L157.234 106.186C157.231 105.82 157.296 105.526 157.427 105.304C157.475 105.224 157.536 105.15 157.611 105.081L157.615 105.091L157.62 105.1C157.625 105.11 157.631 105.119 157.636 105.128C157.736 105.286 157.949 105.4 158.274 105.47L169.441 107.886C169.767 107.957 170.01 107.941 170.171 107.84C170.332 107.738 170.449 107.533 170.522 107.225L170.54 107.15C170.633 106.76 171.021 106.515 171.413 106.6V106.6C171.817 106.687 172.07 107.089 171.975 107.49L171.646 108.879C171.481 109.576 170.979 110.143 170.307 110.391L166.741 111.71C163.884 112.767 164.176 116.9 167.154 117.544V117.544C167.479 117.615 167.723 117.599 167.884 117.498C168.045 117.396 168.164 117.183 168.241 116.859L168.258 116.784C168.351 116.393 168.739 116.148 169.132 116.233V116.233C169.535 116.32 169.788 116.722 169.693 117.124L168.8 120.894C168.708 121.285 168.319 121.53 167.927 121.445V121.445C167.523 121.358 167.27 120.956 167.365 120.555L167.376 120.508C167.449 120.2 167.436 119.967 167.336 119.809C167.237 119.651 167.024 119.536 166.698 119.466L155.252 116.989C155.237 116.955 155.226 116.921 155.218 116.887C155.188 116.702 155.266 116.481 155.453 116.225V116.225C155.647 115.958 155.586 115.583 155.317 115.391L155.2 115.308C154.87 115.073 154.413 115.147 154.175 115.474L153.369 116.582ZM149.274 123.101C149.478 122.227 149.902 121.347 150.546 120.463L153.369 116.582L155.252 116.989C155.32 117.15 155.467 117.31 155.691 117.47L164.97 124.093C165.241 124.287 165.47 124.368 165.657 124.338C165.844 124.307 166.031 124.164 166.217 123.908V123.908C166.412 123.64 166.788 123.579 167.058 123.772L167.165 123.848C167.498 124.086 167.574 124.55 167.333 124.882L163.711 129.86C162.368 131.706 160.79 132.658 158.976 132.715C157.235 132.782 155.373 132.137 153.389 130.781L149.57 125.929C149.364 125.667 149.267 125.435 149.278 125.235C149.3 125.047 149.435 124.855 149.684 124.658L149.735 124.618C150.053 124.366 150.107 123.903 149.856 123.584L149.496 123.127C149.442 123.058 149.343 123.047 149.274 123.101V123.101ZM141.522 133.146C141.236 132.502 141.108 131.834 141.138 131.142C141.198 130.032 141.75 129.063 142.795 128.235L149.274 123.101C149.065 123.998 149.086 124.889 149.34 125.775C149.843 127.548 151.099 129.15 153.107 130.583C153.201 130.651 153.295 130.717 153.389 130.781L156.621 134.886C156.827 135.148 157.024 135.29 157.211 135.312C157.398 135.334 157.615 135.247 157.864 135.05L157.911 135.013C158.231 134.759 158.696 134.814 158.948 135.135V135.135C159.2 135.454 159.145 135.917 158.827 136.169L153.172 140.65C152.048 141.54 150.967 141.918 149.929 141.784C148.877 141.66 147.939 141.075 147.114 140.027C146.588 139.359 146.275 138.651 146.173 137.902C146.165 137.848 146.158 137.794 146.152 137.74C146.077 137.038 145.219 136.083 144.534 135.909V135.909C143.582 134.626 142.578 133.705 141.522 133.146ZM131.373 139.994C131.331 139.497 131.344 139.018 131.413 138.557C131.693 136.745 132.87 135.186 134.943 133.879C137.001 132.582 138.891 132.208 140.612 132.758C140.92 132.858 141.223 132.987 141.522 133.146C141.7 133.546 141.939 133.938 142.24 134.32C142.828 135.067 143.497 135.567 144.249 135.822C144.344 135.856 144.439 135.885 144.534 135.909C144.83 136.308 145.121 136.742 145.407 137.211C146.891 139.644 147.516 141.772 147.28 143.595C147.045 145.418 145.87 146.996 143.755 148.329C141.641 149.662 139.721 150.035 137.996 149.448C136.835 149.043 135.726 148.215 134.669 146.963C134.591 146.487 134.489 145.993 134.362 145.479C133.722 142.9 132.725 141.072 131.373 139.994ZM121.151 141.826C122.041 140.622 123.447 139.757 125.369 139.231C127.732 138.585 129.651 138.778 131.126 139.808C131.209 139.868 131.292 139.929 131.373 139.994C131.497 141.469 132.108 143.105 133.205 144.904C133.681 145.685 134.169 146.371 134.669 146.963C135.008 149.051 134.865 150.779 134.239 152.146C133.455 153.828 131.857 154.999 129.446 155.658C127.034 156.317 125.103 156.111 123.653 155.039C122.276 154.022 121.244 152.242 120.555 149.7L119.985 145.598C120.014 144.49 120.231 143.515 120.636 142.675C120.713 142.516 120.798 142.362 120.89 142.212V142.212C121.061 142.183 121.178 142.024 121.154 141.852L121.151 141.826ZM121.151 141.826C121.058 141.951 120.971 142.08 120.89 142.212L120.457 142.284C120.112 142.342 119.883 142.448 119.77 142.602C119.659 142.773 119.625 143.015 119.669 143.328L119.985 145.598C119.955 146.695 120.11 147.923 120.447 149.282C120.482 149.424 120.518 149.563 120.555 149.7L121.243 154.644C121.289 154.975 121.387 155.195 121.537 155.305C121.687 155.415 121.918 155.444 122.23 155.391V155.391C122.554 155.337 122.859 155.561 122.905 155.887L122.926 156.043C122.981 156.438 122.712 156.806 122.318 156.872L118.989 157.429C118.58 157.497 118.194 157.214 118.137 156.803L118.107 156.588C118.069 156.312 118.257 156.056 118.532 156.01V156.01C118.844 155.958 119.057 155.855 119.17 155.701C119.283 155.547 119.317 155.305 119.271 154.974L119.135 154C118.891 152.243 116.609 151.713 115.614 153.182L113.608 156.146C113.41 156.438 113.658 156.826 114.007 156.767V156.767C114.23 156.73 114.44 156.884 114.471 157.108L114.518 157.45C114.573 157.845 114.303 158.213 113.91 158.279L110.359 158.873C109.95 158.941 109.564 158.658 109.507 158.247V158.247C109.452 157.852 109.722 157.484 110.116 157.418L110.37 157.376C110.666 157.326 110.896 157.229 111.061 157.083C111.226 156.937 111.419 156.694 111.641 156.352V156.352C113.745 153.279 113.476 149.164 110.988 146.391L109.672 144.925C109.453 144.675 109.227 144.501 108.995 144.405C108.746 144.311 108.466 144.291 108.153 144.343L108.062 144.358C107.653 144.427 107.268 144.144 107.211 143.733V143.733C107.156 143.337 107.425 142.97 107.819 142.904L111.542 142.281C111.952 142.213 112.337 142.495 112.394 142.907L112.425 143.125C112.463 143.399 112.276 143.653 112.003 143.699V143.699C111.606 143.765 111.438 144.244 111.707 144.544L114.537 147.706C115.41 148.681 116.968 148.578 117.705 147.494V147.494C117.985 147.081 118.103 146.579 118.034 146.084L117.696 143.658C117.653 143.345 117.563 143.123 117.427 142.994C117.278 142.884 117.03 142.858 116.685 142.916V142.916C116.32 142.977 115.977 142.725 115.926 142.358L115.915 142.276C115.86 141.881 116.129 141.513 116.523 141.448L119.872 140.887C120.486 140.784 121.065 141.209 121.151 141.826V141.826ZM164.454 97.0457C166.03 97.5458 166.099 99.7503 164.557 100.348V100.348C163.415 100.791 162.182 99.9546 162.172 98.7294V98.7294C162.163 97.5385 163.319 96.6854 164.454 97.0457V97.0457ZM150.951 125.175C150.54 123.899 150.854 122.546 151.893 121.118V121.118C152.928 119.696 154.914 119.373 156.345 120.395L161.941 124.389C163.365 125.405 163.687 127.386 162.658 128.801V128.801C161.609 130.243 160.401 130.968 159.035 130.976C157.669 130.983 156.071 130.334 154.239 129.027C152.462 127.758 151.366 126.474 150.951 125.175ZM149.162 134.545C148.391 135.156 147.957 135.83 147.858 136.567C147.76 137.304 147.999 138.039 148.576 138.773C149.195 139.558 149.82 139.988 150.451 140.063C151.069 140.147 151.783 139.868 152.593 139.227L153.344 138.631C154.597 137.638 154.811 135.82 153.822 134.564V134.564C152.829 133.303 151.001 133.088 149.743 134.085L149.162 134.545ZM144.021 129.145C143.355 129.673 142.993 130.278 142.937 130.961C142.891 131.657 143.172 132.391 143.78 133.164C144.409 133.963 145.063 134.39 145.744 134.446C146.435 134.516 147.218 134.204 148.093 133.51L148.786 132.961C150.071 131.943 150.29 130.077 149.276 128.789V128.789C148.258 127.495 146.382 127.275 145.091 128.297L144.021 129.145ZM139.898 134.419C138.61 133.971 137.218 134.218 135.724 135.16C134.215 136.111 133.365 137.277 133.173 138.659C133.004 140.046 133.557 141.786 134.833 143.877C136.135 146.012 137.434 147.31 138.732 147.773C140.037 148.25 141.452 148.008 142.974 147.048C144.483 146.097 145.317 144.921 145.478 143.52C145.647 142.133 145.081 140.372 143.779 138.238C142.503 136.146 141.21 134.873 139.898 134.419ZM125.73 140.687C124.026 141.153 122.884 142.018 122.305 143.281C121.714 144.566 121.714 146.397 122.304 148.775C122.906 151.201 123.756 152.826 124.853 153.649C125.954 154.488 127.364 154.672 129.084 154.202C130.821 153.728 131.974 152.842 132.545 151.546C133.121 150.266 133.107 148.413 132.505 145.987C131.915 143.609 131.071 142.008 129.974 141.186C128.865 140.383 127.45 140.217 125.73 140.687Z" fill="black"/>
</g>
<defs>
<filter id="filter0_d" x="0.541992" y="-15.2676" width="224.801" height="223.676" filterUnits="userSpaceOnUse" color-interpolation-filters="sRGB">
<feFlood flood-opacity="0" result="BackgroundImageFix"/>
<feColorMatrix in="SourceAlpha" type="matrix" values="0 0 0 0 0 0 0 0 0 0 0 0 0 0 0 0 0 0 127 0"/>
<feOffset dy="4"/>
<feGaussianBlur stdDeviation="2"/>
<feColorMatrix type="matrix" values="0 0 0 0 0 0 0 0 0 0 0 0 0 0 0 0 0 0 0.25 0"/>
<feBlend mode="normal" in2="BackgroundImageFix" result="effect1_dropShadow"/>
<feBlend mode="normal" in="SourceGraphic" in2="effect1_dropShadow" result="shape"/>
</filter>
</defs>
</svg>
