<svg width="209" height="198" viewBox="0 0 209 198" fill="none" xmlns="http://www.w3.org/2000/svg">
<g filter="url(#filter0_d)">
<path fill-rule="evenodd" clip-rule="evenodd" d="M119.749 180.059C117.037 180.407 114.638 178.386 114.378 175.665L111.791 148.59C123.411 146.565 134.041 141.06 141.978 132.86C146.778 127.903 150.403 122.156 152.71 115.985C157.783 108.034 160.388 98.8762 160.121 89.5273C159.76 76.8972 154.184 64.8694 144.53 55.8963C134.875 46.9231 121.87 41.6802 108.165 41.2364C94.4597 40.7927 81.0869 45.1815 70.7727 53.5081C63.661 59.2493 58.3728 66.5646 55.3409 74.6762C51.4025 80.8489 48.9254 87.7885 48.1627 95.04C46.8401 107.616 50.7733 120.183 59.1604 130.179C66.494 138.919 76.75 145.119 88.2643 147.868C90.9988 148.52 92.9045 151.12 92.4253 153.89L88.0934 178.93C87.454 179.087 86.771 179.111 86.0777 178.976C63.4225 174.571 43.139 162.884 28.9134 145.929C13.6892 127.784 6.54976 104.973 8.95052 82.1459C9.83945 73.6938 12.0115 65.4751 15.3451 57.7086C20.8703 48.0839 28.2918 39.3767 37.3391 32.0728C56.0612 16.9585 80.3353 8.99198 105.213 9.79749C130.09 10.603 153.697 20.1199 171.221 36.4078C188.745 52.6957 198.867 74.5283 199.523 97.4544C199.873 109.699 197.508 121.763 192.705 132.954C189.044 139.332 184.537 145.328 179.243 150.797C163.771 166.778 142.666 177.122 119.749 180.059ZM15.3451 57.7086C21.0146 44.4997 30.0437 32.5984 41.8336 23.0805C60.5556 7.96614 84.8298 -0.000363505 109.707 0.805146C134.584 1.61065 158.192 11.1275 175.716 27.4155C193.24 43.7034 203.362 65.536 204.017 88.462C204.463 104.063 200.503 119.372 192.705 132.954C188.515 142.717 182.468 151.815 174.749 159.789C159.277 175.771 138.171 186.114 115.254 189.051C112.543 189.399 110.143 187.378 109.883 184.657L106.984 154.313C106.719 151.536 108.783 149.101 111.533 148.634C111.619 148.62 111.705 148.605 111.791 148.59L111.479 145.32C111.213 142.544 113.278 140.108 116.028 139.642C127.749 137.654 138.477 132.128 146.473 123.868C148.844 121.418 150.929 118.776 152.71 115.985C154.79 110.42 155.798 104.509 155.626 98.5196C155.265 85.8895 149.689 73.8618 140.035 64.8886C130.381 55.9154 117.375 50.6725 103.67 50.2288C89.9652 49.785 76.5924 54.1738 66.2783 62.5004C61.9116 66.0256 58.2324 70.1442 55.3409 74.6762C53.9756 78.3289 53.0678 82.1431 52.6572 86.0477C51.3346 98.6233 55.2678 111.19 63.6549 121.186C70.9885 129.927 81.2445 136.126 92.7588 138.875C95.4933 139.528 97.399 142.128 96.9197 144.898L91.7132 174.993C91.3714 176.969 89.9087 178.484 88.0934 178.93L87.2188 183.985C86.7565 186.657 84.2451 188.486 81.5832 187.969C58.928 183.563 38.6445 171.876 24.4189 154.921C9.19476 136.777 2.05529 113.965 4.45605 91.1382C5.69666 79.3421 9.43662 68.0008 15.3451 57.7086ZM94.6582 35.4792C94.6266 35.0979 94.8929 34.7562 95.2703 34.6935L95.3916 34.6734C95.5466 34.6477 95.6779 34.6093 95.7857 34.5582V34.5582C95.9755 35.2597 95.5959 35.9895 94.9127 36.2369L94.881 36.2484V36.2484C94.7964 36.2624 94.7179 36.2012 94.7108 36.1158L94.6582 35.4792ZM108.277 19.1731L108.12 20.4967C108.066 20.9482 108.411 21.351 108.866 21.3741V21.3741C109.273 21.3948 109.631 21.0963 109.679 20.6911V20.6911C109.717 20.3766 109.81 20.1566 109.959 20.0309C110.124 19.9061 110.373 19.8521 110.706 19.869V19.869C112.125 19.941 113.186 21.1984 113.019 22.6089L111.878 32.2415C111.841 32.556 111.747 32.7843 111.596 32.9265C111.447 33.0522 111.19 33.1057 110.823 33.0871L110.786 33.0852C110.4 33.0656 110.064 33.3491 110.018 33.7336V33.7336C109.968 34.1565 110.286 34.5334 110.712 34.555L114.582 34.7514C114.969 34.771 115.304 34.4876 115.35 34.1031L115.357 34.0415C115.403 33.6519 115.11 33.3047 114.718 33.2848V33.2848C114.352 33.2662 114.11 33.1873 113.993 33.0482C113.877 32.8924 113.838 32.6574 113.875 32.3429L115.019 22.6854C115.191 21.2322 116.46 20.1611 117.922 20.2352V20.2352C118.271 20.253 118.505 20.3314 118.622 20.4706C118.74 20.6097 118.78 20.8366 118.743 21.151V21.151C118.697 21.5406 118.99 21.8879 119.381 21.9077L119.51 21.9143C119.93 21.9355 120.294 21.6281 120.343 21.211L120.423 20.5394C120.526 19.6649 119.868 18.8854 118.989 18.8408L108.489 18.3079V18.3079C108.46 17.9572 108.138 17.7061 107.79 17.7637L103.825 18.4221C103.448 18.4847 103.182 18.8264 103.213 19.2077V19.2077C103.249 19.6359 103.644 19.9423 104.068 19.8719V19.8719C104.397 19.8173 104.633 19.8455 104.775 19.9566C104.918 20.0676 105.003 20.2892 105.03 20.6214V20.6214C105.291 23.7749 101.316 25.3659 99.3288 22.9034L97.4808 20.6133C96.9805 19.9932 96.1851 19.6905 95.3991 19.821L94.059 20.0435C93.6815 20.1062 93.4153 20.4479 93.4468 20.8292V20.8292C93.4822 21.2574 93.8779 21.5638 94.3018 21.4934V21.4934C94.6142 21.4415 94.8416 21.4711 94.9841 21.5822C95.1267 21.6932 95.2116 21.9148 95.2391 22.247L96.1806 33.6332C96.2081 33.9654 96.1615 34.2088 96.041 34.3635C95.9802 34.4415 95.8951 34.5064 95.7857 34.5582V34.5582C95.7591 34.4598 95.654 34.4052 95.5581 34.4399L94.984 34.6478C94.6393 34.7726 94.3476 34.8075 94.109 34.7526C93.8705 34.6976 93.6528 34.5291 93.4561 34.2471L85.8276 23.4218C85.4832 22.9332 84.8545 22.7354 84.2924 22.9389V22.9389C83.7993 23.1175 83.4578 23.5699 83.4212 24.093L82.4314 38.2387C82.4123 38.5444 82.3408 38.7933 82.2171 38.9853L81.5504 39.3181C81.2373 39.4744 80.954 39.5508 80.7005 39.5473C80.4407 39.5283 80.1863 39.4138 79.9372 39.2036L78.7833 38.2782C77.4009 37.1696 77.6628 34.9722 78.1831 33.2782V33.2782C78.535 32.1734 78.4653 31.0282 77.9739 29.8427C77.4187 28.5032 76.5853 27.6649 75.4737 27.3279C74.3707 26.968 73.1034 27.1454 71.6719 27.8601L65.2174 31.0825C64.8718 31.255 64.7185 31.6655 64.8664 32.0224L64.891 32.0816C65.0411 32.4437 65.4666 32.6026 65.8173 32.4276V32.4276C66.1453 32.2638 66.3977 32.2214 66.5744 32.3004C66.7448 32.364 66.8906 32.5421 67.0118 32.8346L71.3865 43.3889C71.5018 43.667 71.5343 43.9024 71.4841 44.0952L69.4947 41.2273C68.5814 39.9108 66.7539 39.6234 65.4807 40.596L63.9168 41.7907C63.5986 42.0337 63.5277 42.484 63.756 42.8131V42.8131C63.9995 43.1641 64.4868 43.2408 64.8264 42.9814L65.6533 42.3497C66.4433 41.7463 67.5772 41.9246 68.1438 42.7414L68.9087 43.8441C69.5732 44.8019 69.6523 46.0866 68.8434 46.926C68.4731 47.3103 68.049 47.6849 67.5711 48.05C66.101 49.173 64.602 49.5533 63.0741 49.1911C61.5462 48.8288 60.1695 47.7643 58.9441 45.9978C57.6806 44.1764 57.0881 42.4606 57.1666 40.8503C57.2488 39.2162 58.0184 37.8427 59.4753 36.7297C60.3193 36.085 61.1 35.6548 61.8174 35.4392C62.1406 35.342 62.4766 35.4919 62.669 35.7692V35.7692C62.9557 36.1825 63.5294 36.2727 63.929 35.9674L64.0264 35.893C64.4507 35.5689 64.5451 34.9685 64.2408 34.5298L63.9607 34.1261C63.674 33.7128 63.1983 33.4555 62.7017 33.5354C61.4236 33.7411 60.0632 34.3951 58.6203 35.4973C56.5939 37.0452 55.5172 38.8523 55.3904 40.9186C55.2767 42.9748 55.9514 45.0574 57.4143 47.1663C58.3453 48.5083 59.4036 49.5227 60.5891 50.2094C61.7879 50.8859 63.055 51.1645 64.3907 51.0452C65.73 50.902 67.0619 50.3245 68.3864 49.3128C69.2737 48.6349 70.0019 47.932 70.5709 47.2041C70.8556 46.8432 71.1099 46.4629 71.3338 46.0632L74.9703 44.2477C75.3159 44.0752 75.4667 43.6586 75.3188 43.3017V43.3017C75.1583 42.9147 74.7006 42.7378 74.3257 42.925V42.925C74.0126 43.0813 73.7708 43.1277 73.6005 43.0641C73.4451 42.993 73.3067 42.8112 73.1855 42.5187L72.1968 40.1334C71.7939 39.1614 72.2115 38.0434 73.1528 37.5734V37.5734C73.8521 37.2243 74.6905 37.3136 75.3005 37.8022L78.2185 40.1393C78.521 40.3815 78.4705 40.8557 78.1238 41.0288V41.0288C77.8743 41.1534 77.7636 41.4497 77.8704 41.7073L77.9435 41.8835C78.1068 42.2776 78.57 42.4506 78.9517 42.26L80.9977 41.2386V41.2386C81.0025 41.2564 81.0216 41.2663 81.039 41.26L85.2367 39.7402C85.5961 39.6101 85.7958 39.2262 85.6959 38.8572L85.6336 38.6266C85.5548 38.3357 85.2443 38.1742 84.9608 38.2768V38.2768C84.6109 38.4035 84.2462 38.1288 84.2714 37.7575L84.4067 35.7631C84.4555 35.044 84.9244 34.4215 85.6021 34.1761L88.6744 33.0638C89.4488 32.7834 90.315 33.0584 90.7858 33.7342L91.6875 35.0285C91.9157 35.3561 91.7713 35.811 91.3959 35.9469V35.9469C91.0988 36.0544 90.9338 36.3717 91.0163 36.6767L91.047 36.79C91.1593 37.205 91.6023 37.4354 92.0066 37.289L94.881 36.2484L99.3337 35.5091C99.7112 35.4464 99.9774 35.1047 99.9459 34.7234V34.7234C99.9105 34.2952 99.5148 33.9888 99.0909 34.0592V34.0592C98.7785 34.1111 98.5429 34.0829 98.3839 33.9745C98.24 33.8469 98.155 33.6253 98.1289 33.3097V33.3097C97.8685 30.1599 101.837 28.5692 103.824 31.0269L106.086 33.824C106.334 34.1313 106.729 34.2813 107.119 34.2165V34.2165C107.682 34.123 108.079 33.613 108.032 33.0439L106.978 20.298C106.951 19.9658 106.997 19.7223 107.118 19.5676C107.239 19.4129 107.455 19.3096 107.767 19.2577L108.277 19.1731ZM71.3338 46.0632C71.4404 45.8731 71.54 45.6785 71.6328 45.4796C71.8431 45.0288 71.7676 44.5039 71.4841 44.0952V44.0952C71.4815 44.1052 71.4786 44.1151 71.4756 44.1249C71.4073 44.3076 71.2092 44.4809 70.8811 44.6447L70.8461 44.6622C70.5005 44.8347 70.3472 45.2452 70.4951 45.6021L70.5676 45.7771C70.6918 46.0766 71.0438 46.208 71.3338 46.0632V46.0632ZM80.9977 41.2386L80.8369 40.6443C80.7151 40.1942 80.9587 39.7258 81.3972 39.5671V39.5671C81.7262 39.4479 81.9752 39.2871 82.1441 39.0846C82.1702 39.0534 82.1945 39.0203 82.2171 38.9853V38.9853C82.2315 38.9781 82.2491 38.9846 82.2552 38.9995L82.546 39.7009C82.6939 40.0578 82.5406 40.4683 82.1949 40.6409L80.9977 41.2386ZM108.277 19.1731L108.367 18.4108C108.374 18.3498 108.428 18.3048 108.489 18.3079V18.3079L108.533 18.8439C108.546 19.0037 108.435 19.1469 108.277 19.1731V19.1731ZM84.7295 30.4602C84.8358 28.8136 86.9556 28.2191 87.9026 29.5704V29.5704C88.5626 30.5121 88.1482 31.8235 87.067 32.215V32.215C85.8831 32.6436 84.6483 31.7167 84.7295 30.4602V30.4602ZM74.4285 35.292C75.4424 34.7858 76.1019 34.1407 76.4068 33.3566C76.7054 32.5572 76.6536 31.6725 76.2516 30.7025C75.8304 29.6863 75.2812 29.0778 74.6041 28.877C73.9205 28.6608 73.0419 28.8207 71.9683 29.3567L71.1295 29.7755C69.624 30.5271 68.9562 32.3152 69.6005 33.8697V33.8697C70.3121 35.5863 72.3297 36.3398 73.9923 35.5098L74.4285 35.292ZM57.0436 58.5906C56.7515 58.3136 56.7355 57.8534 57.0078 57.5568L57.058 57.502C57.2722 57.2687 57.376 57.0571 57.3694 56.8671C57.3507 56.6657 57.2204 56.4503 56.9785 56.221L48.7054 48.3777C48.4635 48.1484 48.2491 48.037 48.0622 48.0435C47.8753 48.05 47.6747 48.1698 47.4606 48.4031L47.4263 48.4404C47.1478 48.7439 46.6747 48.7603 46.3758 48.4769V48.4769C46.0836 48.1999 46.0676 47.7397 46.3399 47.4431L48.9604 44.5885C49.2389 44.2851 49.712 44.2687 50.0109 44.552V44.552C50.3031 44.8291 50.3191 45.2892 50.0468 45.5859L49.9965 45.6406C49.7824 45.8739 49.6786 46.0855 49.6852 46.2755C49.6918 46.4654 49.8161 46.6751 50.058 46.9044L58.3491 54.7649C58.591 54.9942 58.8055 55.1056 58.9924 55.0991C59.1793 55.0927 59.3799 54.9728 59.594 54.7395L59.6283 54.7022C59.9068 54.3988 60.3799 54.3823 60.6788 54.6657V54.6657C60.971 54.9427 60.987 55.4029 60.7147 55.6995L58.0942 58.5541C57.8157 58.8575 57.3426 58.874 57.0436 58.5906V58.5906ZM46.7058 72.8383V72.8383C46.4775 73.2137 46.6016 73.7034 46.9813 73.9246L47.494 74.2234L46.7212 76.7399C46.6068 77.1124 46.222 77.3313 45.8433 77.2391V77.2391C45.4316 77.1389 45.1893 76.7127 45.3137 76.3077L45.3266 76.2657C45.4195 75.963 45.4208 75.7321 45.3304 75.5731C45.2238 75.4102 45.0166 75.2913 44.7089 75.2164L43.4318 74.9055C41.3969 74.4102 40.1381 77.0533 41.8051 78.321L42.1965 78.6187C42.6061 78.9302 42.778 79.4642 42.6269 79.9562V79.9562C42.4889 80.4055 42.1066 80.7366 41.6422 80.8089L41.1888 80.8795C39.0691 81.2096 38.9424 84.2151 41.0267 84.7225L41.7368 84.8953C42.0444 84.9702 42.2907 84.9617 42.4756 84.8697C42.6443 84.7738 42.7751 84.5745 42.8681 84.2717L42.9066 84.1464C43.021 83.7739 43.4058 83.555 43.7845 83.6472V83.6472C44.1962 83.7474 44.4385 84.1736 44.3141 84.5786L43.1766 88.2829C43.0622 88.6555 42.6774 88.8743 42.2987 88.7821V88.7821C41.887 88.6819 41.6447 88.2557 41.7691 87.8507L41.7746 87.8326C41.8676 87.5299 41.8688 87.2991 41.7784 87.1401C41.6718 86.9771 41.4566 86.8563 41.1327 86.7774L30.0805 84.0871C29.7566 84.0082 29.5103 84.0168 29.3416 84.1127C29.1567 84.2047 29.0178 84.402 28.9248 84.7047L28.8937 84.8062C28.7793 85.1787 28.3944 85.3975 28.0158 85.3054V85.3054C27.6041 85.2052 27.3618 84.779 27.4861 84.3739L27.9865 82.7446C28.2495 81.8881 28.978 81.2566 29.8632 81.1179L31.6279 80.8413C35.0229 80.3091 36.1183 75.9633 33.3811 73.8855L32.5516 73.2558C31.7472 72.6452 31.4095 71.5974 31.706 70.632L32.1682 69.1266C32.2826 68.7541 32.6675 68.5352 33.0461 68.6274V68.6274C33.4578 68.7276 33.7002 69.1538 33.5758 69.5588L33.5702 69.5769C33.4773 69.8796 33.4841 70.1124 33.5907 70.2754C33.6811 70.4344 33.8883 70.5533 34.2121 70.6321L45.2644 73.3225C45.5883 73.4013 45.8427 73.3948 46.0276 73.3028C46.1962 73.2069 46.3271 73.0075 46.42 72.7048L46.6163 72.0656C46.638 71.9951 46.7108 71.9537 46.7825 71.9711V71.9711C46.8294 72.0331 46.8631 72.0964 46.8837 72.1609C46.9296 72.3419 46.8703 72.5677 46.7058 72.8383ZM46.7825 71.9711C46.6916 71.851 46.5511 71.7356 46.3612 71.625L36.5333 65.8976C36.2453 65.7298 36.009 65.6692 35.8246 65.716C35.6257 65.7544 35.444 65.9089 35.2794 66.1795L35.2398 66.2447C35.031 66.588 34.5857 66.7009 34.2385 66.4986V66.4986C33.882 66.2908 33.7654 65.831 33.9798 65.4784L34.8432 64.0585C35.329 63.2598 36.239 62.8215 37.1663 62.9397L38.4806 63.1072C41.9716 63.5522 44.2898 59.5917 42.1927 56.7656L41.5485 55.8975C40.9695 55.1173 40.9211 54.0642 41.4258 53.2342L42.2673 51.8505C42.4761 51.5072 42.9214 51.3942 43.2686 51.5966V51.5966C43.6251 51.8043 43.7417 52.2642 43.5273 52.6168L43.502 52.6584C43.3375 52.9289 43.2854 53.1589 43.3457 53.3484C43.3916 53.5294 43.5586 53.7039 43.8466 53.8717L53.6745 59.5991C53.9625 59.7669 54.2059 59.8316 54.4048 59.7932C54.5893 59.7465 54.7638 59.5878 54.9283 59.3172L54.968 59.252C55.1768 58.9087 55.6221 58.7957 55.9693 58.9981V58.9981C56.3258 59.2058 56.4424 59.6657 56.228 60.0183L54.2146 63.3291C54.0058 63.6725 53.5605 63.7854 53.2133 63.5831V63.5831C52.8568 63.3753 52.7401 62.9154 52.9546 62.5629L52.9928 62.4999C53.1574 62.2293 53.2167 62.0035 53.1708 61.8225C53.1105 61.633 52.9435 61.4586 52.6699 61.2991L51.7075 60.7383C49.8803 59.6734 47.9058 61.8777 49.1646 63.5771L49.4513 63.9641C49.7487 64.3657 49.7735 64.9075 49.5138 65.3345V65.3345C49.2615 65.7494 48.7885 65.9768 48.3069 65.9149L47.8395 65.8549C45.7259 65.5833 44.7651 68.4093 46.6063 69.4823L47.409 69.9501C47.6826 70.1095 47.9188 70.17 48.1177 70.1316C48.3022 70.0849 48.4767 69.9262 48.6412 69.6556L48.6939 69.5691C48.9027 69.2257 49.348 69.1128 49.6952 69.3151V69.3151C50.0517 69.5229 50.1683 69.9828 49.9539 70.3353L47.6069 74.1948C47.5833 74.2335 47.5331 74.2462 47.494 74.2234V74.2234L47.6936 73.5734C47.9075 72.8766 47.4907 72.1435 46.7825 71.9711V71.9711ZM41.0844 94.1886V94.1886C41.0435 94.6155 41.3748 94.991 41.8036 94.9981V94.9981C42.1871 95.0045 42.5111 94.715 42.5477 94.3331L42.9172 90.4758C42.9581 90.0489 42.6264 89.6777 42.1976 89.6706V89.6706C41.814 89.6642 41.4901 89.9538 41.4535 90.3356L41.442 90.4557C41.4118 90.7709 41.3237 90.9938 41.1777 91.1243C41.0316 91.2548 40.792 91.3173 40.4587 91.3117L29.0353 91.1219C28.702 91.1164 28.475 91.0461 28.3544 90.9112C28.2338 90.7763 28.1886 90.5512 28.2188 90.236V90.236C28.2597 89.809 27.9284 89.4335 27.4996 89.4264V89.4264C27.1161 89.42 26.7921 89.7095 26.7555 90.0914L26.386 93.9487C26.3451 94.3756 26.6768 94.7468 27.1056 94.7539V94.7539C27.4892 94.7603 27.8131 94.4708 27.8497 94.0889L27.8612 93.9689C27.8914 93.6536 27.9795 93.4308 28.1256 93.3003C28.2716 93.1698 28.5112 93.1073 28.8445 93.1128L40.243 93.3022C40.5762 93.3077 40.8115 93.3781 40.9488 93.5133C41.0694 93.6483 41.1146 93.8733 41.0844 94.1886ZM46.7397 123.579C46.3773 123.771 45.9277 123.631 45.739 123.267L45.7138 123.218C45.5682 122.937 45.4058 122.768 45.2268 122.712C45.033 122.664 44.7889 122.718 44.4944 122.875L34.4247 128.219C34.1302 128.375 33.9548 128.544 33.8983 128.725C33.8418 128.905 33.8864 129.136 34.032 129.418L34.0642 129.48C34.2501 129.839 34.1122 130.281 33.755 130.47V130.47C33.3926 130.663 32.943 130.522 32.7544 130.158L28.4006 121.748C28.0351 121.042 28.3062 120.174 29.0085 119.801L29.4992 119.541C29.9414 119.306 30.4902 119.477 30.7203 119.922L30.877 120.224C31.0171 120.495 30.9132 120.828 30.6441 120.971V120.971C30.3644 121.119 30.2001 121.291 30.1513 121.487C30.0948 121.668 30.1432 121.906 30.2964 122.202L31.3517 124.241C32.0997 125.685 33.8831 126.242 35.3202 125.479L35.7576 125.247C36.9319 124.624 37.3853 123.171 36.7741 121.991L36.0063 120.508C35.8204 120.149 35.9583 119.707 36.3155 119.517V119.517C36.6779 119.325 37.1275 119.465 37.3161 119.83L38.077 121.299C38.6846 122.473 40.1331 122.925 41.3004 122.306L41.8128 122.034C43.2414 121.275 43.7931 119.508 43.0495 118.072L41.9782 116.003C41.825 115.707 41.6588 115.531 41.4797 115.475C41.293 115.404 41.0598 115.443 40.78 115.591V115.591C40.5004 115.74 40.1533 115.631 40.0078 115.35L39.8541 115.053C39.6273 114.615 39.7956 114.076 40.2314 113.845L40.7232 113.584C41.4418 113.202 42.3335 113.481 42.7075 114.203L47.0488 122.589C47.2347 122.948 47.0968 123.39 46.7397 123.579V123.579ZM55.9549 136.225L55.9919 136.268C56.2566 136.581 56.7249 136.618 57.0353 136.351V136.351C57.3426 136.087 57.3792 135.624 57.1172 135.315L54.6441 132.397C54.3795 132.084 53.9111 132.047 53.6007 132.314V132.314C53.2934 132.579 53.2569 133.041 53.5189 133.35L53.5304 133.364C53.7351 133.605 53.83 133.821 53.8151 134.009C53.7876 134.209 53.6475 134.417 53.3947 134.634L52.5528 135.358C50.9377 136.747 48.5007 136.554 47.1236 134.929V134.929C45.7602 133.321 45.9504 130.913 47.5493 129.539L48.4325 128.779C48.6853 128.562 48.9116 128.455 49.1116 128.459C49.2989 128.474 49.4949 128.602 49.6996 128.844L49.7205 128.868C49.9851 129.181 50.4535 129.218 50.7639 128.951V128.951C51.0712 128.687 51.1077 128.224 50.8457 127.915L48.3565 124.978C48.0919 124.665 47.6235 124.628 47.3131 124.895V124.895C47.0058 125.16 46.9693 125.622 47.2313 125.931L47.2589 125.964C47.4745 126.218 47.5748 126.44 47.5599 126.628C47.5323 126.828 47.3922 127.036 47.1394 127.254L38.4952 134.686C38.2424 134.903 38.0224 135.004 37.8351 134.99C37.637 134.962 37.4356 134.827 37.2309 134.586L37.21 134.561C36.9453 134.249 36.477 134.212 36.1666 134.479V134.479C35.8593 134.743 35.8228 135.206 36.0848 135.515L38.574 138.452C38.8386 138.764 39.307 138.801 39.6174 138.534V138.534C39.9247 138.27 39.9612 137.808 39.6992 137.498L39.6715 137.466C39.4668 137.224 39.3719 137.009 39.3868 136.82C39.4017 136.632 39.5355 136.429 39.7883 136.211L40.6112 135.504C42.2263 134.115 44.6633 134.308 46.0404 135.933V135.933C47.4038 137.541 47.2137 139.949 45.6147 141.324L44.7505 142.067C44.4977 142.284 44.2777 142.385 44.0904 142.37C43.9031 142.356 43.707 142.227 43.5023 141.986V141.986C43.2376 141.674 42.7646 141.631 42.4542 141.898V141.898C42.1469 142.162 42.1104 142.625 42.3724 142.934L44.8454 145.852C45.1101 146.164 45.5784 146.201 45.8888 145.934V145.934C46.1961 145.67 46.2326 145.207 45.9706 144.898L45.9268 144.847C45.7221 144.605 45.6272 144.39 45.6421 144.201C45.657 144.013 45.7908 143.81 46.0435 143.592L54.6878 136.16C54.9405 135.943 55.1669 135.836 55.3668 135.84C55.5541 135.855 55.7502 135.983 55.9549 136.225ZM63.9655 142.462V142.462C64.2864 142.702 64.7444 142.63 64.9835 142.309V142.309C65.2267 141.983 65.1632 141.516 64.8368 141.272L61.7305 138.956C61.4038 138.712 60.9379 138.784 60.6945 139.111V139.111C60.4553 139.433 60.5181 139.892 60.8391 140.131V140.131C61.1331 140.35 61.2936 140.553 61.3209 140.74C61.3382 140.94 61.2523 141.167 61.0632 141.421L55.255 149.221C54.3976 150.372 52.7688 150.61 51.618 149.752V149.752C51.3374 149.543 51.1835 149.345 51.1562 149.158C51.129 148.971 51.2099 148.751 51.399 148.497V148.497C51.6382 148.176 51.5719 147.722 51.2509 147.482L51.1912 147.438C50.8368 147.173 50.3353 147.247 50.0713 147.601L49.638 148.183C49.1352 148.858 49.2746 149.813 49.9495 150.316L57.3245 155.816C58 156.32 58.956 156.181 59.4593 155.505L59.8994 154.914C60.159 154.565 60.0871 154.072 59.7386 153.812L59.688 153.774C59.3671 153.535 58.9129 153.601 58.6738 153.922V153.922C58.4847 154.176 58.2969 154.317 58.1104 154.344C57.9105 154.361 57.677 154.27 57.4098 154.071V154.071C56.2473 153.204 56.0072 151.559 56.8732 150.396L62.6664 142.616C62.8555 142.362 63.0483 142.215 63.2448 142.175C63.4313 142.147 63.6715 142.243 63.9655 142.462ZM148.588 47.0932C148.903 46.8224 149.379 46.8645 149.641 47.1865L149.668 47.2192C149.867 47.4647 150.06 47.5957 150.245 47.6121C150.443 47.6177 150.668 47.5117 150.921 47.2942L159.56 39.8559C159.812 39.6384 159.947 39.4344 159.964 39.244C159.981 39.0536 159.889 38.8356 159.689 38.59L159.637 38.5258C159.385 38.2162 159.425 37.7622 159.728 37.5017V37.5017C160.042 37.2308 160.519 37.273 160.781 37.5949L163.195 40.5613C163.447 40.8709 163.404 41.3274 163.102 41.5879V41.5879C162.79 41.8559 162.316 41.8168 162.057 41.4982V41.4982C161.857 41.2526 161.664 41.1217 161.479 41.1053C161.294 41.0888 161.075 41.1894 160.822 41.4069L159.899 42.2019C158.325 43.5573 158.116 45.9196 159.427 47.5306V47.5306C160.791 49.2058 163.268 49.4252 164.905 48.0158L165.668 47.359C165.921 47.1415 166.055 46.9375 166.072 46.7471C166.089 46.5567 165.997 46.3387 165.798 46.0931L165.761 46.0483C165.509 45.7387 165.549 45.2847 165.852 45.0242V45.0242C166.166 44.7533 166.642 44.7955 166.904 45.1174L169.335 48.1032C169.587 48.4128 169.547 48.8668 169.244 49.1273V49.1273C168.93 49.3981 168.454 49.3559 168.192 49.034L168.181 49.0207C167.981 48.7751 167.783 48.6377 167.587 48.6083C167.402 48.5919 167.183 48.6925 166.931 48.91L158.292 56.3483C158.039 56.5658 157.898 56.7752 157.869 56.9765C157.852 57.1669 157.948 57.3913 158.159 57.6498L158.195 57.6947C158.447 58.0043 158.407 58.4583 158.105 58.7188V58.7188C157.79 58.9896 157.314 58.9475 157.052 58.6255L154.621 55.6398C154.369 55.3302 154.41 54.8762 154.712 54.6157V54.6157C155.027 54.3449 155.503 54.387 155.765 54.709L155.776 54.7223C155.976 54.9678 156.168 55.0988 156.353 55.1152C156.551 55.1208 156.776 55.0148 157.029 54.7973L157.971 53.986C159.545 52.6306 159.755 50.2683 158.443 48.6572V48.6572C157.079 46.9821 154.602 46.7627 152.965 48.1721L152.184 48.8452C151.931 49.0627 151.79 49.2721 151.76 49.4734C151.744 49.6638 151.835 49.8818 152.035 50.1273L152.056 50.1528C152.308 50.4624 152.268 50.9164 151.965 51.1769V51.1769C151.65 51.4478 151.174 51.4056 150.912 51.0837L148.497 48.1173C148.245 47.8077 148.286 47.3537 148.588 47.0932V47.0932ZM159.004 59.5536L158.973 59.4927C158.785 59.123 158.329 58.9809 157.965 59.1784V59.1784C157.613 59.3687 157.477 59.8044 157.658 60.1607L159.334 63.4593C159.522 63.829 159.978 63.9711 160.343 63.7736L160.484 63.6973C160.757 63.5494 160.862 63.211 160.722 62.9343V62.9343C160.545 62.5864 160.76 62.1675 161.146 62.1088L162.858 61.8479C163.636 61.7293 164.402 62.1232 164.759 62.825L166.239 65.738C166.583 66.4157 166.471 67.2359 165.958 67.7965L164.712 69.1571C164.454 69.4386 163.995 69.3759 163.822 69.0356V69.0356C163.683 68.7616 163.345 68.6563 163.074 68.8026L162.902 68.8958C162.551 69.0861 162.415 69.5218 162.596 69.8781L164.508 73.6414L165.116 76.9898C165.19 77.396 165.582 77.6626 165.987 77.581V77.581C166.381 77.5015 166.639 77.1217 166.567 76.7265L166.553 76.6508C166.497 76.3393 166.52 76.0965 166.624 75.9226C166.747 75.7617 166.964 75.65 167.275 75.5874V75.5874C170.257 74.9858 172.179 78.6501 169.989 80.762L166.833 83.8046C166.578 84.051 166.462 84.4087 166.526 84.7579V84.7579C166.632 85.3424 167.197 85.726 167.779 85.6085L180.246 83.0941C180.573 83.0282 180.814 83.0477 180.968 83.1525C181.123 83.2573 181.228 83.4655 181.285 83.7771L181.293 83.8244C181.367 84.2307 181.76 84.4972 182.165 84.4156V84.4156C182.558 84.3362 182.816 83.9563 182.744 83.5611L182.053 79.7484C181.979 79.3422 181.586 79.0756 181.181 79.1573V79.1573C180.788 79.2367 180.53 79.6166 180.602 80.0117L180.615 80.0874C180.675 80.4153 180.651 80.6581 180.544 80.8157C180.437 80.9732 180.221 81.0849 179.894 81.1508V81.1508C176.907 81.7531 174.984 78.0829 177.179 75.9704L179.919 73.3337C180.434 72.8375 180.668 72.1162 180.54 71.4121L180.285 70.0075C180.211 69.6013 179.818 69.3347 179.414 69.4164V69.4164C179.02 69.4958 178.762 69.8756 178.834 70.2708L178.848 70.3465C178.904 70.658 178.879 70.8926 178.772 71.0502C178.665 71.2077 178.448 71.3194 178.122 71.3853L166.922 73.6441C166.595 73.71 166.355 73.6906 166.2 73.5857C166.046 73.4809 165.94 73.2727 165.884 72.9611L165.793 72.4599C165.764 72.3029 165.612 72.1999 165.456 72.2314V72.2314C165.356 71.9861 165.314 71.7625 165.329 71.5606C165.348 71.3039 165.478 71.0443 165.718 70.7815L175.019 60.5213C175.389 60.1126 175.469 59.5177 175.219 59.0259V59.0259C174.96 58.5154 174.402 58.2284 173.836 58.3133L160.407 60.3286C160.061 60.3833 159.78 60.3458 159.565 60.2161C159.349 60.0864 159.162 59.8656 159.004 59.5536ZM165.456 72.2314V72.2314C164.811 72.3615 164.391 72.9941 164.508 73.6414V73.6414V73.6414C164.567 73.7565 164.709 73.8007 164.822 73.7392L165.28 73.4911C165.632 73.3008 165.768 72.8651 165.587 72.5088L165.55 72.4359C165.514 72.3661 165.483 72.298 165.456 72.2314ZM167.938 61.0356C169.571 60.7808 170.616 62.7234 169.502 63.9458V63.9458C168.677 64.8516 167.201 64.6521 166.646 63.5597V63.5597C166.107 62.4981 166.761 61.2191 167.938 61.0356V61.0356ZM168.327 88.6705V88.6705C168.34 88.3402 168.081 88.0629 167.751 88.0529L167.607 88.0486C167.203 88.0365 166.864 88.3526 166.848 88.7569L166.607 94.9214C166.52 97.1364 167.171 98.8316 168.56 100.007C169.964 101.2 171.899 101.833 174.365 101.907C176.93 101.984 178.951 101.486 180.428 100.414C181.903 99.3574 182.686 97.6886 182.775 95.407L183.015 89.2559C183.031 88.8463 182.71 88.5022 182.3 88.4899L182.17 88.486C181.838 88.476 181.559 88.7355 181.546 89.0675V89.0675C181.534 89.3839 181.459 89.6068 181.32 89.736C181.182 89.8652 180.946 89.9248 180.613 89.9148L169.218 89.5726C168.885 89.5626 168.646 89.4887 168.501 89.351C168.373 89.2137 168.315 88.9869 168.327 88.6705ZM169.565 98.6117C168.513 97.7798 168.022 96.4812 168.091 94.7159V94.7159C168.16 92.9591 169.631 91.5858 171.389 91.6386L178.261 91.845C180.009 91.8975 181.378 93.3654 181.31 95.1129V95.1129C181.241 96.8949 180.64 98.169 179.51 98.9354C178.379 99.7018 176.689 100.051 174.44 99.9836C172.258 99.9181 170.633 99.4608 169.565 98.6117ZM166.705 101.435C167.098 101.539 167.332 101.942 167.229 102.335L167.213 102.398C167.132 102.704 167.139 102.939 167.234 103.102C167.346 103.269 167.562 103.396 167.884 103.482L178.901 106.412C179.223 106.498 179.466 106.494 179.628 106.399C179.791 106.304 179.913 106.104 179.993 105.797L180.008 105.739C180.112 105.344 180.517 105.109 180.911 105.214V105.214C181.304 105.318 181.538 105.721 181.435 106.114L179.603 113.092C179.239 114.479 178.601 115.43 177.69 115.946C176.775 116.479 175.673 116.574 174.384 116.231C173.563 116.013 172.887 115.634 172.356 115.097V115.097C171.81 114.565 170.415 114.29 169.697 114.545C169.655 114.56 169.612 114.575 169.569 114.588C168.814 114.836 167.978 114.837 167.06 114.593C165.836 114.268 164.906 113.641 164.271 112.713C163.652 111.79 163.512 110.683 163.851 109.393L165.802 101.96C165.906 101.565 166.311 101.33 166.705 101.435V101.435ZM172.731 110.617C172.481 111.569 172.538 112.368 172.902 113.017C173.266 113.666 173.899 114.11 174.801 114.35C175.767 114.607 176.525 114.576 177.074 114.256C177.619 113.953 178.023 113.301 178.285 112.302L178.529 111.374C178.935 109.829 178.014 108.246 176.469 107.835V107.835C174.918 107.422 173.327 108.348 172.919 109.901L172.731 110.617ZM165.378 109.386C165.162 110.208 165.236 110.909 165.601 111.489C165.982 112.073 166.647 112.491 167.597 112.744C168.58 113.006 169.36 112.954 169.938 112.591C170.532 112.231 170.971 111.512 171.255 110.432L171.479 109.576C171.896 107.991 170.951 106.367 169.367 105.946V105.946C167.775 105.522 166.143 106.472 165.724 108.065L165.378 109.386ZM163.102 117.257C161.34 117.659 159.899 118.949 158.779 121.128C157.667 123.292 157.45 125.226 158.13 126.929C158.825 128.64 160.415 130.157 162.9 131.482C165.415 132.823 167.561 133.314 169.337 132.958C171.113 132.601 172.572 131.312 173.715 129.088C174.858 126.865 175.071 124.901 174.355 123.197C173.63 121.508 172.01 119.993 169.495 118.653C167.01 117.328 164.878 116.863 163.102 117.257ZM159.709 126.099C159.164 124.827 159.295 123.405 160.103 121.834C160.918 120.247 161.998 119.312 163.344 119.029C164.696 118.767 166.453 119.213 168.615 120.365C170.821 121.541 172.204 122.769 172.764 124.049C173.339 125.337 173.215 126.782 172.392 128.383C171.576 129.969 170.485 130.888 169.118 131.142C167.766 131.403 165.987 130.946 163.78 129.77C161.618 128.618 160.261 127.394 159.709 126.099ZM150.57 133.713C152.11 131.808 153.78 130.843 155.579 130.817C157.391 130.803 159.371 131.706 161.519 133.528C163.692 135.372 164.957 137.199 165.315 139.01C165.661 140.833 165.049 142.717 163.477 144.661C161.905 146.605 160.217 147.566 158.414 147.544C156.611 147.522 154.622 146.589 152.449 144.745C150.301 142.923 149.065 141.099 148.741 139.274C148.43 137.459 149.04 135.605 150.57 133.713ZM151.714 134.683C150.603 136.057 150.182 137.426 150.45 138.79C150.721 140.177 151.791 141.664 153.659 143.248C155.566 144.866 157.204 145.688 158.575 145.714C159.959 145.752 161.212 145.077 162.333 143.691C163.465 142.291 163.884 140.899 163.59 139.513C163.309 138.138 162.215 136.642 160.308 135.025C158.44 133.44 156.82 132.635 155.449 132.608C154.08 132.605 152.835 133.296 151.714 134.683ZM148.098 142.38L148.126 142.363C148.468 142.156 148.582 141.715 148.385 141.368V141.368C148.179 141.007 147.717 140.887 147.362 141.102L144.134 143.06C143.793 143.267 143.678 143.708 143.876 144.055L143.917 144.127C144.1 144.448 144.512 144.555 144.828 144.363V144.363C145.127 144.182 145.367 144.115 145.547 144.161C145.721 144.231 145.886 144.404 146.043 144.679L147.255 146.807C147.502 147.241 147.579 147.751 147.471 148.239V148.239C147.188 149.518 145.78 150.191 144.607 149.608L140.807 147.72C140.446 147.54 140.425 147.034 140.769 146.825V146.825C141.006 146.682 141.085 146.376 140.948 146.136L140.839 145.944C140.634 145.584 140.171 145.464 139.816 145.679L136.589 147.637C136.247 147.844 136.133 148.285 136.33 148.632V148.632C136.536 148.992 136.998 149.112 137.353 148.897L137.432 148.849C137.703 148.685 137.971 148.6 138.236 148.595C138.488 148.599 138.762 148.676 139.059 148.827L140.824 149.702C144.162 151.356 145.936 155.078 145.119 158.713V158.713C145.04 159.112 144.951 159.41 144.852 159.606C144.753 159.803 144.575 159.979 144.318 160.134L144.098 160.268C143.757 160.475 143.642 160.916 143.84 161.263V161.263C144.045 161.624 144.508 161.744 144.863 161.529L147.941 159.662C148.282 159.455 148.396 159.013 148.199 158.667L148.028 158.367C147.916 158.17 147.664 158.105 147.471 158.222V158.222C147.169 158.405 146.795 158.138 146.87 157.793L147.636 154.296C148.016 152.563 150.332 152.211 151.21 153.752L151.696 154.607C151.861 154.897 151.92 155.134 151.872 155.319C151.824 155.504 151.664 155.679 151.394 155.843V155.843C151.156 155.987 151.076 156.295 151.213 156.537L151.321 156.725C151.526 157.086 151.989 157.206 152.344 156.991L155.23 155.241C155.571 155.034 155.685 154.592 155.488 154.245L155.41 154.108C155.247 153.823 154.881 153.728 154.6 153.898V153.898C154.329 154.062 154.104 154.121 153.924 154.074C153.744 154.028 153.571 153.859 153.406 153.57L147.753 143.642C147.596 143.366 147.538 143.129 147.577 142.93C147.625 142.745 147.799 142.561 148.098 142.38Z" fill="#F5F5F5"/>
</g>
<defs>
<filter id="filter0_d" x="0" y="0.749512" width="208.051" height="196.341" filterUnits="userSpaceOnUse" color-interpolation-filters="sRGB">
<feFlood flood-opacity="0" result="BackgroundImageFix"/>
<feColorMatrix in="SourceAlpha" type="matrix" values="0 0 0 0 0 0 0 0 0 0 0 0 0 0 0 0 0 0 127 0"/>
<feOffset dy="4"/>
<feGaussianBlur stdDeviation="2"/>
<feColorMatrix type="matrix" values="0 0 0 0 0 0 0 0 0 0 0 0 0 0 0 0 0 0 0.25 0"/>
<feBlend mode="normal" in2="BackgroundImageFix" result="effect1_dropShadow"/>
<feBlend mode="normal" in="SourceGraphic" in2="effect1_dropShadow" result="shape"/>
</filter>
</defs>
</svg>
