<svg width="165" height="164" viewBox="0 0 165 164" fill="none" xmlns="http://www.w3.org/2000/svg">
<g filter="url(#filter0_ddddddd)">
<path d="M87.5498 138.658C88.0611 144.114 92.8931 148.21 98.2505 147.056C112.722 143.939 125.902 136.673 135.892 126.153C148.093 113.303 154.617 96.5669 154.134 79.3553C153.652 62.1438 146.198 45.7532 133.294 33.5251C120.39 21.2971 103.007 14.1523 84.6881 13.5476C66.3695 12.9429 48.4949 18.9237 34.7088 30.2706C20.9226 41.6176 12.2628 57.4763 10.495 74.6136C8.72717 91.7508 13.9844 108.876 25.1949 122.498C34.388 133.669 47.0171 141.794 61.247 145.851C66.4852 147.345 71.5558 143.625 72.467 138.254L74.21 127.983C75.1467 122.463 71.2853 117.358 66.1147 115.21C60.1307 112.724 54.8437 108.864 50.7771 103.923C44.6012 96.4184 41.7049 86.9838 42.6788 77.5428C43.6528 68.1017 48.4235 59.3651 56.0184 53.1139C63.6133 46.8628 73.4605 43.5679 83.5524 43.9011C93.6443 44.2342 103.221 48.1703 110.33 54.9068C117.439 61.6434 121.545 70.6731 121.811 80.1551C122.077 89.6371 118.483 98.8573 111.761 105.936C107.311 110.623 101.712 114.137 95.5163 116.218C90.2404 117.991 86.0614 122.775 86.5807 128.317L87.5498 138.658Z" fill="#F5F5F5"/>
<path d="M72.2598 96.5056C82.1767 105.565 88.6204 105.876 97.2598 97.5056" stroke="#F5F5F5"/>
<path d="M50.7611 128.015L50.4635 128.415L47.0729 125.888L47.3705 125.489L48.8583 126.597L52.6454 121.515L53.0604 121.824L49.2733 126.906L50.7611 128.015Z" fill="black"/>
<path d="M45.1294 114.923L39.9302 119.361L39.5942 118.967L41.9858 116.926L41.2123 116.02L41.5911 115.696L42.3646 116.602L44.7934 114.529L45.1294 114.923ZM41.2931 115.347L40.9143 115.671L40.1407 114.764L37.7491 116.806L37.4131 116.412L42.6123 111.974L42.9483 112.368L40.5195 114.441L41.2931 115.347Z" fill="black"/>
<path d="M37.8571 105.177L31.8026 108.351L30.1522 105.202L30.5933 104.971L32.0034 107.661L34.3733 106.419L33.3894 104.542L33.8392 104.306L34.8231 106.183L37.1757 104.949L35.7656 102.26L36.2067 102.028L37.8571 105.177Z" fill="black"/>
<path d="M30.1874 81.2927L23.353 81.1465L23.4002 80.6311L30.2346 80.7773L30.1874 81.2927Z" fill="black"/>
<path d="M31.4027 73.7124L26.3301 72.4613L26.3557 72.3772L27.5048 72.2187L31.5534 73.2172L31.4027 73.7124ZM25.0596 72.148L24.7657 72.0755L24.8965 71.6457L31.4812 70.7085L27.732 67.755L27.7604 67.6616L28.8034 67.9188L32.324 70.6854L32.1932 71.1152L25.0596 72.148ZM32.9923 68.4899L26.3552 66.853L26.5059 66.3579L33.143 67.9948L32.9923 68.4899Z" fill="black"/>
<path d="M36.1181 61.3934L31.6036 58.7636L31.6493 58.6886L32.7843 58.8526L36.3875 60.9515L36.1181 61.3934ZM30.4728 58.105L30.2112 57.9526L30.4451 57.569L36.9563 58.4806L34.1354 54.5548L34.1862 54.4715L35.1144 55.0122L37.7652 58.6918L37.5314 59.0754L30.4728 58.105ZM38.9599 56.7324L33.053 53.2916L33.3225 52.8497L39.2293 56.2905L38.9599 56.7324Z" fill="black"/>
<path d="M43.7626 50.6084L38.7898 45.9179L39.1407 45.5375L44.1135 50.228L43.7626 50.6084Z" fill="black"/>
<path d="M48.2067 43.6299L46.3472 40.974C46.1433 40.6714 46.0573 40.2877 46.0892 39.8228C46.1354 39.2082 46.3999 38.7182 46.8825 38.3526L47.1681 38.7605C46.8086 39.0411 46.6185 39.4218 46.5978 39.9027C46.5863 40.2379 46.6701 40.5335 46.8494 40.7895L48.6193 43.3174C48.9329 43.7654 49.3898 43.9416 49.9901 43.846C50.2441 43.8005 50.4386 43.7266 50.5735 43.6244L50.8591 44.0324C50.5374 44.2762 50.1476 44.4 49.6898 44.4041C49.0684 44.4014 48.5741 44.1433 48.2067 43.6299ZM51.2172 43.7612L50.9316 43.3532C51.1392 43.1959 51.2839 42.9149 51.3658 42.5101C51.4446 42.0668 51.3839 41.6965 51.1837 41.3992L50.5508 40.4953L49.4921 41.2972L49.2121 40.8972L50.6911 39.7768L51.6825 41.1928C51.9102 41.5181 51.9753 41.9627 51.8775 42.5264C51.7709 43.0887 51.5508 43.5003 51.2172 43.7612ZM47.5262 38.4893L47.2406 38.0813C47.6416 37.7693 48.121 37.6714 48.6788 37.7875C49.1615 37.8871 49.528 38.1155 49.7781 38.4729L49.4798 38.9315C49.4238 38.8515 49.3857 38.8028 49.3656 38.7854C49.0156 38.3649 48.5706 38.2001 48.0306 38.2909C47.8189 38.3288 47.6508 38.3949 47.5262 38.4893Z" fill="black"/>
<path d="M58.4171 39.008L55.7652 32.7074L56.2295 32.4786L58.8813 38.7793L58.4171 39.008ZM58.0948 35.7544L57.9053 35.3044L59.1405 34.6957C59.6894 34.4252 59.9225 34.0242 59.8398 33.4926C59.8125 33.3104 59.7534 33.1113 59.6625 32.8953C59.367 32.1932 58.9466 31.8896 58.4013 31.9845C58.2317 32.0173 58.0477 32.0826 57.8492 32.1804L56.8067 32.6941L56.6325 32.2801L57.8501 31.6801C58.8973 31.2365 59.6562 31.5653 60.1268 32.6665C60.4391 33.4255 60.4485 34.0258 60.155 34.4675C60.6387 34.461 61.0147 34.7177 61.2829 35.2376L62.2539 37.1174L61.7984 37.3419L60.9926 35.8044C60.7211 35.2934 60.452 35.0058 60.1853 34.9416C59.9687 34.8962 59.7128 34.9499 59.4175 35.1026L58.0948 35.7544Z" fill="black"/>
<path d="M66.3395 35.4974L66.5146 29.4282L66.6749 29.385L66.9668 30.073L66.8393 35.3628L66.3395 35.4974ZM67.2978 33.9381L67.307 33.4212L68.7497 33.0327L66.712 28.3461L67.2118 28.2115L69.9512 34.525L69.4514 34.6595L68.9575 33.4913L67.2978 33.9381Z" fill="black"/>
<path d="M77.0337 33.174L77.2169 27.4933L77.295 27.4902L77.7111 28.1851L77.5509 33.1533L77.0337 33.174ZM77.2437 26.6637L77.2541 26.3416L77.7322 26.3224L81.3973 32.3365L81.3759 33.0002L81.1125 33.0107L77.2437 26.6637ZM80.9309 30.7857L81.0792 26.1885L81.5963 26.1678L81.4247 31.4873L81.3467 31.4904L80.9309 30.7857Z" fill="black"/>
<path d="M88.883 27.1534L88.9952 26.6682L93.1649 27.371L93.0527 27.8562L91.223 27.5478L89.7946 33.7226L89.2842 33.6366L90.7126 27.4618L88.883 27.1534Z" fill="black"/>
<path d="M120.014 45.462L125.47 41.3443L125.774 41.7634L123.264 43.6575L123.963 44.6222L123.565 44.9222L122.866 43.9575L120.317 45.8811L120.014 45.462ZM123.835 45.2939L124.232 44.9939L124.931 45.9586L127.442 44.0644L127.745 44.4835L122.289 48.6013L121.985 48.1822L124.534 46.2586L123.835 45.2939Z" fill="black"/>
<path d="M126.539 55.868L132.385 54.7074L132.45 54.86L131.834 55.3067L126.743 56.3436L126.539 55.868ZM128.178 56.4932L128.675 56.3885L129.265 57.7616L133.452 54.6685L133.656 55.1442L128.014 59.3051L127.81 58.8295L128.856 58.0727L128.178 56.4932Z" fill="black"/>
<path d="M130.705 67.6842L136.283 66.5917L136.297 66.6685L135.679 67.2375L130.801 68.193L130.705 67.6842ZM137.098 66.4322L137.414 66.3702L137.502 66.8406L132.157 71.8281L131.505 71.9557L131.457 71.6965L137.098 66.4322ZM133.604 71.0171L138.118 70.133L138.214 70.6417L132.991 71.6648L132.976 71.588L133.604 71.0171Z" fill="black"/>
<path d="M132.194 80.0155L139.026 80.2527L139.008 80.77L132.176 80.5327L132.194 80.0155ZM132.16 80.9914L132.658 81.0087C132.63 81.809 132.68 82.3645 132.806 82.675C133.005 83.1249 133.404 83.3635 134.003 83.3908L136.989 83.4945C137.679 83.5185 138.122 83.2407 138.317 82.6612C138.405 82.3907 138.464 81.9074 138.494 81.2114L138.992 81.2287C138.959 82.1852 138.835 82.8551 138.62 83.2385C138.308 83.7749 137.759 84.0327 136.971 84.0118L133.985 83.9081C133.054 83.8758 132.482 83.4748 132.267 82.7052C132.169 82.3435 132.133 81.7722 132.16 80.9914Z" fill="black"/>
<path d="M130.98 92.3924L130.85 92.8934L137.451 94.6694L137.581 94.1684L130.98 92.3924ZM130.728 93.3256L130.431 94.4694C130.253 95.1563 130.36 95.7547 130.752 96.2648C131.029 96.6225 131.394 96.8622 131.847 96.984C132.368 97.1244 132.835 97.0613 133.248 96.7946C133.305 96.7561 133.362 96.7175 133.419 96.6789C133.616 97.1634 133.978 97.4933 134.504 97.6686C134.548 97.6804 134.589 97.6914 134.627 97.7016C135.192 97.8538 135.708 97.7836 136.174 97.491C136.609 97.2169 136.901 96.7899 137.051 96.2102L137.338 95.1042L136.876 94.9799L136.599 96.048C136.434 96.6845 136.065 97.0706 135.492 97.2062C135.234 97.2651 134.986 97.2623 134.747 97.1981C133.996 96.9825 133.726 96.4548 133.937 95.615L134.283 94.2822L133.821 94.1578L133.475 95.4906C133.269 96.2847 132.833 96.6292 132.168 96.5243C132.11 96.5154 132.049 96.5025 131.986 96.4856C131.471 96.3469 131.132 96.0332 130.969 95.5445C130.851 95.169 130.856 94.7355 130.984 94.244L131.19 93.45L130.728 93.3256Z" fill="black"/>
<path d="M128.797 105.114L131.632 106.627C131.936 106.789 132.179 107.085 132.361 107.514C132.597 108.082 132.58 108.634 132.313 109.17L131.864 108.931C132.082 108.508 132.055 108.055 131.783 107.571C131.634 107.306 131.458 107.121 131.257 107.013L128.56 105.575C128.118 105.339 127.658 105.359 127.179 105.635C126.92 105.784 126.743 105.952 126.647 106.137L126.199 105.898C126.369 105.568 126.656 105.301 127.061 105.096C127.647 104.811 128.225 104.817 128.797 105.114ZM125.954 106.376L126.402 106.615C126.262 106.887 126.24 107.215 126.336 107.598C126.443 108.031 126.676 108.347 127.035 108.546L129.732 109.985C130.025 110.141 130.365 110.171 130.751 110.074C131.149 109.969 131.44 109.745 131.624 109.4L132.072 109.639C131.771 110.224 131.281 110.56 130.6 110.647C130.208 110.696 129.886 110.653 129.634 110.519L126.799 109.007C126.161 108.666 125.82 108.119 125.775 107.365C125.758 106.972 125.817 106.642 125.954 106.376Z" fill="black"/>
<path d="M122.223 116.133L124.648 118.241C124.908 118.468 125.079 118.811 125.162 119.27C125.265 119.878 125.127 120.413 124.748 120.877L124.365 120.544C124.669 120.179 124.743 119.73 124.587 119.197C124.499 118.906 124.37 118.685 124.198 118.536L121.891 116.53C121.513 116.201 121.06 116.119 120.534 116.282C120.248 116.37 120.038 116.494 119.905 116.654L119.521 116.32C119.759 116.036 120.098 115.838 120.538 115.729C121.171 115.581 121.732 115.715 122.223 116.133ZM119.177 116.733L119.56 117.066C119.364 117.301 119.27 117.616 119.279 118.011C119.287 118.458 119.444 118.819 119.749 119.093L122.056 121.098C122.307 121.316 122.63 121.421 123.028 121.413C123.438 121.399 123.771 121.244 124.026 120.948L124.41 121.282C123.988 121.786 123.436 122.005 122.754 121.938C122.362 121.899 122.058 121.786 121.842 121.598L119.417 119.49C118.872 119.016 118.661 118.406 118.784 117.659C118.854 117.271 118.985 116.962 119.177 116.733Z" fill="black"/>
<path d="M112.292 123.861L116.327 129.379L115.915 129.693L111.88 124.175L112.292 123.861ZM113.496 127.129L113.484 131.545L113.01 131.906L113.022 127.49L108.943 126.412L109.417 126.051L113.496 127.129Z" fill="black"/>
<path d="M63.1402 85.0683C62.854 69.2081 77.3572 70.6778 77.6197 85.2862" stroke="#F5F5F5"/>
<path d="M88.1401 85.0682C87.6769 71.1548 102.182 72.6059 102.607 85.4211" stroke="#F5F5F5"/>
<line x1="63" y1="85.0056" x2="76" y2="85.0056" stroke="#F5F5F5"/>
<line x1="87.9615" y1="84.6382" x2="100.015" y2="85.0058" stroke="#F5F5F5"/>
<mask id="path-27-inside-1" fill="white">
<path fill-rule="evenodd" clip-rule="evenodd" d="M80.0697 127.408L74.258 130.708C73.5892 131.088 72.7613 130.604 72.7656 129.836L72.8196 120.39C72.824 119.621 73.6574 119.143 74.3219 119.527L79.9696 122.795L85.9337 119.556C86.6127 119.187 87.4277 119.685 87.4027 120.453L87.0957 129.896C87.0708 130.664 86.2245 131.129 85.5704 130.733L80.0697 127.408Z"/>
</mask>
<path fill-rule="evenodd" clip-rule="evenodd" d="M80.0697 127.408L74.258 130.708C73.5892 131.088 72.7613 130.604 72.7656 129.836L72.8196 120.39C72.824 119.621 73.6574 119.143 74.3219 119.527L79.9696 122.795L85.9337 119.556C86.6127 119.187 87.4277 119.685 87.4027 120.453L87.0957 129.896C87.0708 130.664 86.2245 131.129 85.5704 130.733L80.0697 127.408Z" fill="#F5F5F5"/>
<path d="M80.0697 127.408L80.587 126.552L80.0855 126.249L79.5759 126.539L80.0697 127.408ZM74.258 130.708L74.7518 131.578H74.7518L74.258 130.708ZM72.7656 129.836L73.7656 129.841L72.7656 129.836ZM72.8196 120.39L73.8196 120.395L72.8196 120.39ZM74.3219 119.527L73.8211 120.393L74.3219 119.527ZM79.9696 122.795L79.4687 123.661L79.9541 123.942L80.4469 123.674L79.9696 122.795ZM85.9337 119.556L86.411 120.435L85.9337 119.556ZM87.4027 120.453L86.4032 120.42V120.42L87.4027 120.453ZM87.0957 129.896L86.0963 129.864L87.0957 129.896ZM85.5704 130.733L85.0531 131.589L85.5704 130.733ZM79.5759 126.539L73.7642 129.839L74.7518 131.578L80.5635 128.278L79.5759 126.539ZM73.7642 129.839C73.7593 129.842 73.7579 129.842 73.7597 129.841C73.7613 129.841 73.7633 129.841 73.7653 129.841C73.7686 129.841 73.7676 129.841 73.7642 129.839C73.7608 129.837 73.7612 129.836 73.7631 129.84C73.7642 129.842 73.7652 129.844 73.7657 129.846C73.7662 129.848 73.7656 129.847 73.7656 129.841L71.7657 129.83C71.7569 131.37 73.416 132.337 74.7518 131.578L73.7642 129.839ZM73.7656 129.841L73.8196 120.395L71.8197 120.384L71.7657 129.83L73.7656 129.841ZM73.8196 120.395C73.8197 120.39 73.8203 120.389 73.8198 120.391C73.8194 120.392 73.8186 120.394 73.8177 120.395C73.8163 120.398 73.8168 120.396 73.8211 120.393C73.8253 120.391 73.8269 120.392 73.8237 120.392C73.8218 120.392 73.8196 120.391 73.8177 120.391C73.8156 120.39 73.8167 120.39 73.8211 120.393L74.8228 118.662C73.4919 117.892 71.8284 118.85 71.8197 120.384L73.8196 120.395ZM73.8211 120.393L79.4687 123.661L80.4704 121.93L74.8228 118.662L73.8211 120.393ZM80.4469 123.674L86.411 120.435L85.4564 118.677L79.4923 121.917L80.4469 123.674ZM86.411 120.435C86.4171 120.431 86.4194 120.431 86.4183 120.431C86.4173 120.431 86.4156 120.432 86.4136 120.432C86.4101 120.432 86.4097 120.431 86.411 120.431C86.4124 120.432 86.4101 120.431 86.407 120.426C86.4053 120.423 86.4041 120.42 86.4035 120.417C86.4028 120.414 86.4034 120.415 86.4032 120.42L88.4022 120.485C88.4526 118.932 86.8033 117.946 85.4564 118.677L86.411 120.435ZM86.4032 120.42L86.0963 129.864L88.0952 129.929L88.4022 120.485L86.4032 120.42ZM86.0963 129.864C86.0961 129.869 86.0954 129.87 86.0957 129.869C86.096 129.869 86.0964 129.868 86.0966 129.867C86.0968 129.867 86.0963 129.868 86.0947 129.869C86.093 129.871 86.0907 129.873 86.0879 129.874C86.0815 129.878 86.0785 129.877 86.0815 129.877C86.0834 129.877 86.0859 129.877 86.0884 129.878C86.0911 129.879 86.091 129.879 86.0877 129.877L85.0531 131.589C86.3717 132.386 88.0458 131.448 88.0952 129.929L86.0963 129.864ZM86.0877 129.877L80.587 126.552L79.5524 128.264L85.0531 131.589L86.0877 129.877Z" fill="black" mask="url(#path-27-inside-1)"/>
</g>
<defs>
<filter id="filter0_ddddddd" x="6.15918" y="13.5059" width="152" height="141.746" filterUnits="userSpaceOnUse" color-interpolation-filters="sRGB">
<feFlood flood-opacity="0" result="BackgroundImageFix"/>
<feColorMatrix in="SourceAlpha" type="matrix" values="0 0 0 0 0 0 0 0 0 0 0 0 0 0 0 0 0 0 127 0"/>
<feOffset dy="4"/>
<feGaussianBlur stdDeviation="2"/>
<feColorMatrix type="matrix" values="0 0 0 0 0 0 0 0 0 0 0 0 0 0 0 0 0 0 0.25 0"/>
<feBlend mode="normal" in2="BackgroundImageFix" result="effect1_dropShadow"/>
<feColorMatrix in="SourceAlpha" type="matrix" values="0 0 0 0 0 0 0 0 0 0 0 0 0 0 0 0 0 0 127 0"/>
<feOffset dy="4"/>
<feGaussianBlur stdDeviation="2"/>
<feColorMatrix type="matrix" values="0 0 0 0 0 0 0 0 0 0 0 0 0 0 0 0 0 0 0.25 0"/>
<feBlend mode="normal" in2="effect1_dropShadow" result="effect2_dropShadow"/>
<feColorMatrix in="SourceAlpha" type="matrix" values="0 0 0 0 0 0 0 0 0 0 0 0 0 0 0 0 0 0 127 0"/>
<feOffset dy="4"/>
<feGaussianBlur stdDeviation="2"/>
<feColorMatrix type="matrix" values="0 0 0 0 0 0 0 0 0 0 0 0 0 0 0 0 0 0 0.25 0"/>
<feBlend mode="normal" in2="effect2_dropShadow" result="effect3_dropShadow"/>
<feColorMatrix in="SourceAlpha" type="matrix" values="0 0 0 0 0 0 0 0 0 0 0 0 0 0 0 0 0 0 127 0"/>
<feOffset dy="4"/>
<feGaussianBlur stdDeviation="2"/>
<feColorMatrix type="matrix" values="0 0 0 0 0 0 0 0 0 0 0 0 0 0 0 0 0 0 0.25 0"/>
<feBlend mode="normal" in2="effect3_dropShadow" result="effect4_dropShadow"/>
<feColorMatrix in="SourceAlpha" type="matrix" values="0 0 0 0 0 0 0 0 0 0 0 0 0 0 0 0 0 0 127 0"/>
<feOffset dy="4"/>
<feGaussianBlur stdDeviation="2"/>
<feColorMatrix type="matrix" values="0 0 0 0 0 0 0 0 0 0 0 0 0 0 0 0 0 0 0.25 0"/>
<feBlend mode="normal" in2="effect4_dropShadow" result="effect5_dropShadow"/>
<feColorMatrix in="SourceAlpha" type="matrix" values="0 0 0 0 0 0 0 0 0 0 0 0 0 0 0 0 0 0 127 0"/>
<feOffset dy="4"/>
<feGaussianBlur stdDeviation="2"/>
<feColorMatrix type="matrix" values="0 0 0 0 0 0 0 0 0 0 0 0 0 0 0 0 0 0 0.25 0"/>
<feBlend mode="normal" in2="effect5_dropShadow" result="effect6_dropShadow"/>
<feColorMatrix in="SourceAlpha" type="matrix" values="0 0 0 0 0 0 0 0 0 0 0 0 0 0 0 0 0 0 127 0"/>
<feOffset dy="4"/>
<feGaussianBlur stdDeviation="2"/>
<feColorMatrix type="matrix" values="0 0 0 0 0 0 0 0 0 0 0 0 0 0 0 0 0 0 0.25 0"/>
<feBlend mode="normal" in2="effect6_dropShadow" result="effect7_dropShadow"/>
<feBlend mode="normal" in="SourceGraphic" in2="effect7_dropShadow" result="shape"/>
</filter>
</defs>
</svg>
